<?xml version="1.0" encoding="UTF-8"?>
<svg width="20px" height="20px" viewBox="0 0 20 20" version="1.1" xmlns="http://www.w3.org/2000/svg" xmlns:xlink="http://www.w3.org/1999/xlink">
    <title>编组 8</title>
    <g id="新官网" stroke="none" stroke-width="1" fill="none" fill-rule="evenodd">
        <g id="尾部" transform="translate(-365.000000, -140.000000)">
            <g id="编组-15" transform="translate(365.000000, 104.000000)">
                <g id="编组-8" transform="translate(0.000000, 36.000000)">
                    <rect id="矩形" x="0" y="0" width="20" height="20"></rect>
                    <g id="编组" transform="translate(2.000000, 2.000000)" fill="#000000" fill-rule="nonzero">
                        <path d="M7.5,5 C6.12340585,5 5,6.12340585 5,7.5 C5,8.87659415 6.12340585,10 7.5,10 C8.87659415,10 10,8.87659415 10,7.5 C10,6.12340585 8.87659415,5 7.5,5 Z" id="路径"></path>
                        <path d="M14.9991627,7.5 C14.9991627,6.46430024 15.0085438,5.43798182 14.9503806,4.40415833 C14.8922174,3.20334701 14.6182874,2.13762697 13.7402105,1.25953369 C12.8602573,0.379564152 11.7964334,0.107505339 10.5956444,0.0493410405 C9.55996393,-0.00882325759 8.53366462,0.000558080809 7.49986037,0.000558080809 C6.46417989,0.000558080809 5.43788058,-0.00882325759 4.40407633,0.0493410405 C3.20328737,0.107505339 2.13758717,0.38144042 1.25951025,1.25953369 C0.379557086,2.13950324 0.107503337,3.20334701 0.0493401219,4.40415833 C-0.00882309333,5.43985809 0.000558070419,6.46617651 0.000558070419,7.5 C0.000558070419,8.53382349 -0.00882309333,9.56201818 0.0493401219,10.5958417 C0.107503337,11.796653 0.381433319,12.862373 1.25951025,13.7404663 C2.13946341,14.6204358 3.20328737,14.8924947 4.40407633,14.950659 C5.43975681,15.0088233 6.46605613,14.9994419 7.49986037,14.9994419 C8.53554085,14.9994419 9.56184016,15.0088233 10.5956444,14.950659 C11.7964334,14.8924947 12.8621336,14.6185596 13.7402105,13.7404663 C14.6201637,12.8604968 14.8922174,11.796653 14.9503806,10.5958417 C15.0104201,9.56201818 14.9991627,8.53569976 14.9991627,7.5 Z M7.49798414,11.348225 C5.36845997,11.348225 3.64983077,9.62956382 3.64983077,7.5 C3.64983077,5.37043618 5.36845997,3.65177499 7.49798414,3.65177499 C9.62750831,3.65177499 11.3461375,5.37043618 11.3461375,7.5 C11.3461375,9.62956382 9.62750831,11.348225 7.49798414,11.348225 Z M11.5037411,4.39290072 C11.0065394,4.39290072 10.6050256,3.99137944 10.6050256,3.4941685 C10.6050256,2.99695757 11.0065394,2.59543628 11.5037411,2.59543628 C12.0009427,2.59543628 12.4024565,2.99695757 12.4024565,3.4941685 C12.4005803,3.99325571 12.0009427,4.39290072 11.5037411,4.39290072 Z" id="形状"></path>
                    </g>
                </g>
            </g>
        </g>
    </g>
</svg>