<svg xmlns="http://www.w3.org/2000/svg" xmlns:xlink="http://www.w3.org/1999/xlink" fill="none" version="1.1" width="522" height="146" viewBox="0 0 522 146"><g style="opacity:0.10000000149011612;"><g></g><g><g><g><path d="M179.7370010498047,81.0321151696086L210.58150104980467,81.0321151696086L205.9290010498047,99.2866151696086L154.3842010498047,99.2866151696086L172.28720104980468,28.895715169608593L192.98760104980468,28.895715169608593L179.7370010498047,81.0321151696086Z" fill="#222222" fill-opacity="1" style="mix-blend-mode:passthrough"/></g><g><path d="M256.10458990478514,94.85812120361328C254.17588990478515,98.02562120361328,252.35028990478514,100.77282120361329,250.61298990478517,103.08462120361328C248.89038990478517,105.41142120361329,247.16778990478517,107.40802120361329,245.44518990478517,109.10442120361328C244.82688990478516,109.65982120361329,244.17908990478514,110.21532120361329,243.53128990478515,110.74072120361328C242.86868990478516,111.26612120361328,242.23568990478515,111.74652120361328,241.61728990478517,112.16682120361328C240.99888990478516,112.58722120361328,240.42478990478514,112.96252120361328,239.90948990478515,113.27772120361328C239.39418990478515,113.59302120361328,238.84938990478514,113.86322120361328,238.30468990478516,114.07332120361328C236.99428990478515,114.62882120361328,235.49258990478515,114.98902120361328,233.79948990478516,115.12422120361327C232.10628990478517,115.25932120361328,229.50038990478515,115.33442120361327,225.98158990478515,115.33442120361327L215.94058990478516,115.33442120361327L219.76854990478515,100.56272120361328C220.53411990478514,100.56272120361328,221.27026990478515,100.57772120361328,221.99171990478516,100.60772120361328C222.71312990478515,100.63772120361328,223.41983990478516,100.65272120361328,224.11181990478516,100.65272120361328C226.32028990478517,100.65272120361328,228.01338990478516,100.33752120361328,229.17648990478517,99.70702120361328C230.35428990478516,99.07652120361328,231.10518990478516,98.05572120361327,231.45848990478515,96.64452120361328C231.59098990478515,96.35932120361329,231.66468990478515,96.04412120361329,231.66468990478515,95.69882120361328C231.66468990478515,95.35352120361328,231.66468990478515,94.96322120361327,231.66468990478515,94.54292120361328C231.66468990478515,94.12252120361327,231.64988990478517,93.68722120361329,231.60578990478515,93.22182120361327C231.57628990478514,92.77152120361328,231.51738990478515,92.29112120361327,231.44378990478515,91.79572120361328L226.37918990478516,48.63642120361328L246.04888990478514,48.63642120361328L246.87338990478514,79.87622120361328L263.3335899047852,48.63642120361328L283.00328990478516,48.63642120361328L256.10458990478514,94.85812120361328Z" fill="#222222" fill-opacity="1" style="mix-blend-mode:passthrough"/></g><g><path d="M310.54985419921877,55.91716642456055C311.65405419921876,54.79127642456055,312.69945419921874,53.77047642456055,313.70055419921874,52.85471642456055C314.7017541992187,51.93901642456055,315.68815419921873,51.15836642456055,316.6451541992187,50.527896424560545C318.5149541992188,49.26689642456055,320.3994541992188,48.36617642456055,322.34295419921875,47.84074642456055C324.27165419921874,47.31532042456055,326.37695419921874,47.04511642456055,328.65905419921876,47.04511642456055C333.28205419921875,47.04511642456055,336.80085419921875,48.155986424560545,339.2153541992187,50.362736424560545C341.62995419921873,52.58451642456055,342.83725419921876,55.72200642456055,342.83725419921876,59.80521642456055C342.83725419921876,60.79601642456055,342.76365419921876,61.83181642456054,342.63105419921874,62.91271642456054C342.49855419921874,64.00861642456054,342.24825419921876,65.14951642456055,341.9096541992187,66.33541642456055L333.53235419921873,99.25651642456054L314.7017541992187,99.25651642456054L322.0484541992188,70.23851642456054C322.1809541992188,69.68311642456055,322.28405419921876,69.17271642456055,322.35765419921876,68.70731642456055C322.43125419921876,68.25701642456055,322.46065419921877,67.80661642456054,322.46065419921877,67.38631642456055C322.46065419921877,65.97521642456054,322.0484541992188,64.90931642456054,321.2239541992187,64.17371642456055C320.3994541992188,63.43811642456055,319.1922541992187,63.06281642456055,317.6021541992188,63.06281642456055C315.0550541992188,63.06281642456055,312.86135419921874,63.94851642456055,311.03575419921873,65.70491642456055C309.2101541992188,67.46141642456055,307.84085419921877,70.02841642456055,306.94275419921877,73.40611642456055L300.42055419921877,99.25661642456055L281.69305419921875,99.25661642456055L294.53145419921873,48.60641642456055L312.1252541992188,48.60641642456055L310.54985419921877,55.91716642456055Z" fill="#222222" fill-opacity="1" style="mix-blend-mode:passthrough"/></g><g><path d="M371.39958498535157,99.2865665802002L352.56898498535156,99.2865665802002L362.60998498535156,59.92536658020019L355.6755349853516,59.92536658020019L358.47287498535155,48.63646658020019L365.40738498535154,48.63646658020019C367.27718498535154,41.385666580200194,370.05978498535154,36.26661658020019,373.78468498535153,33.2792165802002C377.5095849853516,30.291856580200196,382.8981849853516,28.790666580200195,389.93568498535154,28.790666580200195C390.70128498535155,28.790666580200195,391.45218498535155,28.790666580200195,392.2176849853516,28.790666580200195C392.9832849853516,28.790666580200195,393.7341849853516,28.790666580200195,394.49978498535154,28.790666580200195C395.26528498535157,28.790666580200195,396.0161849853516,28.805693180200194,396.7817849853516,28.850727080200194C397.5326849853516,28.880734380200195,398.29818498535155,28.895760580200196,399.06378498535156,28.895760580200196L395.64808498535155,42.301366580200195C395.16228498535156,42.22636658020019,394.74998498535155,42.196266580200195,394.41138498535156,42.196266580200195C394.05798498535154,42.196266580200195,393.74878498535156,42.196266580200195,393.4837849853516,42.196266580200195C393.3512849853516,42.196266580200195,393.2040849853516,42.196266580200195,393.0715849853516,42.196266580200195C392.93908498535154,42.196266580200195,392.76238498535156,42.196266580200195,392.55628498535157,42.196266580200195C390.21528498535156,42.196266580200195,388.41918498535154,42.6015665802002,387.16768498535157,43.412266580200196C385.9309849853516,44.2228665802002,385.06228498535154,45.54396658020019,384.57648498535156,47.3754665802002L384.2672849853516,48.63646658020019L393.99908498535154,48.63646658020019L391.20178498535154,59.92536658020019L381.46988498535154,59.92536658020019L371.39958498535157,99.2865665802002Z" fill="#222222" fill-opacity="1" style="mix-blend-mode:passthrough"/></g><g><path d="M440.33212614746094,93.28184251708984C433.83932614746095,98.28074251708983,426.56622614746095,100.77274251708985,418.49812614746094,100.77274251708985C411.74032614746096,100.77274251708985,406.42532614746096,99.00134251708985,402.5532461474609,95.44354251708984C398.6958561474609,91.88574251708985,396.75242614746094,87.15704251708985,396.75242614746094,81.25724251708985C396.75242614746094,80.05634251708985,396.84075984746096,78.87044251708984,397.0174271474609,77.66944251708985C397.1940951474609,76.46844251708984,397.41492914746095,75.23754251708985,397.69466814746096,73.97654251708984C399.6969561474609,66.09524251708984,403.9224661474609,59.64014251708984,410.37102614746095,54.61113251708984C416.8197261474609,49.582132517089846,424.07802614746095,47.060142517089844,432.16092614746094,47.060142517089844C438.9187261474609,47.060142517089844,444.2337261474609,48.861592517089846,448.10582614746096,52.44941251708984C451.9631261474609,56.03728251708984,453.90662614746094,60.75104251708984,453.90662614746094,66.59064251708985C453.90662614746094,67.71654251708985,453.83302614746094,68.91744251708984,453.7004261474609,70.17854251708985C453.5679261474609,71.43954251708985,453.31762614746094,72.71554251708984,452.97902614746096,73.97654251708984C451.02092614746095,81.84274251708985,446.8102261474609,88.28284251708985,440.33212614746094,93.28184251708984ZM415.95102614746094,77.54934251708984C415.77432614746095,78.60024251708984,415.68602614746095,79.62104251708985,415.68602614746095,80.61174251708985C415.68602614746095,82.93864251708985,416.2013261474609,84.66504251708984,417.23192614746097,85.77584251708984C418.26252614746096,86.90174251708984,419.8231261474609,87.45724251708984,421.8843261474609,87.45724251708984C424.78472614746096,87.45724251708984,427.24352614746095,86.33134251708984,429.28992614746096,84.07954251708983C431.32172614746094,81.82774251708985,432.89712614746094,78.45004251708984,434.00132614746093,73.94644251708985C434.3399261474609,72.61044251708984,434.59022614746095,71.39444251708984,434.72272614746095,70.31354251708984C434.85522614746094,69.21774251708985,434.92882614746094,68.22694251708984,434.92882614746094,67.31124251708985C434.92882614746094,64.98434251708984,434.4135261474609,63.27304251708985,433.38302614746095,62.14714251708985C432.35232614746093,61.021242517089846,430.79172614746096,60.46574251708984,428.7305261474609,60.46574251708984C425.83012614746093,60.46574251708984,423.3861261474609,61.576642517089844,421.3838261474609,63.78344251708984C419.38152614746093,65.99014251708985,417.7914261474609,69.39784251708984,416.62832614746094,73.96144251708984C416.3485261474609,75.29754251708985,416.1277261474609,76.49844251708984,415.95102614746094,77.54934251708984Z" fill="#222222" fill-opacity="1" style="mix-blend-mode:passthrough"/></g><g><path d="M508.4254794189453,93.28184251708984C501.9327794189453,98.28074251708983,494.6595794189453,100.77274251708985,486.5914794189453,100.77274251708985C479.83367941894534,100.77274251708985,474.51867941894534,99.00134251708985,470.6465994189453,95.44354251708984C466.7892094189453,91.88574251708985,464.8457794189453,87.15704251708985,464.8457794189453,81.25724251708985C464.8457794189453,80.05634251708985,464.93411311894533,78.87044251708984,465.1107804189453,77.66944251708985C465.2874484189453,76.46844251708984,465.5082824189453,75.23754251708985,465.78802041894534,73.97654251708984C467.7903094189453,66.09524251708984,472.0158194189453,59.64014251708984,478.4643794189453,54.61113251708984C484.9130794189453,49.582132517089846,492.1714794189453,47.060142517089844,500.2542794189453,47.060142517089844C507.0121794189453,47.060142517089844,512.3270794189453,48.861592517089846,516.1991794189453,52.44941251708984C520.0565794189453,56.03728251708984,522.0000794189453,60.75104251708984,522.0000794189453,66.59064251708985C522.0000794189453,67.71654251708985,521.9264794189453,68.91744251708984,521.7938794189453,70.17854251708985C521.6613794189453,71.43954251708985,521.4110794189453,72.71554251708984,521.0724794189454,73.97654251708984C519.1142794189453,81.84274251708985,514.9034794189453,88.28284251708985,508.4254794189453,93.28184251708984ZM484.0443794189453,77.54934251708984C483.86767941894533,78.60024251708984,483.7793794189453,79.62104251708985,483.7793794189453,80.61174251708985C483.7793794189453,82.93864251708985,484.2946794189453,84.66504251708984,485.32527941894534,85.77584251708984C486.35587941894534,86.90174251708984,487.9164794189453,87.45724251708984,489.9776794189453,87.45724251708984C492.87807941894533,87.45724251708984,495.3367794189453,86.33134251708984,497.38327941894534,84.07954251708983C499.4150794189453,81.82774251708985,500.9904794189453,78.45004251708984,502.0946794189453,73.94644251708985C502.4332794189453,72.61044251708984,502.6835794189453,71.39444251708984,502.8160794189453,70.31354251708984C502.9485794189453,69.21774251708985,503.0221794189453,68.22694251708984,503.0221794189453,67.31124251708985C503.0221794189453,64.98434251708984,502.5069794189453,63.27304251708985,501.4763794189453,62.14714251708985C500.4456794189453,61.021242517089846,498.88507941894534,60.46574251708984,496.8239794189453,60.46574251708984C493.92357941894534,60.46574251708984,491.4794794189453,61.576642517089844,489.47727941894533,63.78344251708984C487.47497941894534,65.99014251708985,485.88487941894533,69.39784251708984,484.7216794189453,73.96144251708984C484.4418794189453,75.29754251708985,484.2210794189453,76.49844251708984,484.0443794189453,77.54934251708984Z" fill="#222222" fill-opacity="1" style="mix-blend-mode:passthrough"/></g></g><g><path d="M50.587827374267576,135.0151269592285L64.76592737426758,109.20962695922852L97.09742737426757,109.20962695922852L126.49902737426758,57.628726959228516L64.76592737426758,57.628726959228516L35.40852737426758,110.24542695922852L50.587827374267576,135.0151269592285Z" fill="#222222" fill-opacity="1" style="mix-blend-mode:passthrough"/></g><g style="opacity:0.699999988079071;"><path d="M75.8965,9.125L61.7331,34.9155L29.4016,34.9155L0,86.5115L61.7331,86.5115L91.0758,33.8947L75.8965,9.125Z" fill="#222222" fill-opacity="1" style="mix-blend-mode:passthrough"/></g></g></g></svg>
