<svg xmlns="http://www.w3.org/2000/svg" xmlns:xlink="http://www.w3.org/1999/xlink" fill="none" version="1.1" width="171" height="48" viewBox="0 0 171 48"><g><g></g><g><g><g><path d="M53.92694859619141,26.562805406934025L62.494898596191405,26.562805406934025L61.202498596191404,31.782905406934024L46.884498596191406,31.782905406934024L51.857568596191406,11.653705406934023L57.607698596191405,11.653705406934023L53.92694859619141,26.562805406934025Z" fill="#ffffff" fill-opacity="1" style="mix-blend-mode:passthrough"/></g><g><path d="M75.14019380493164,30.516529078674317C74.60439380493165,31.422329078674316,74.09729380493164,32.20792907867432,73.61471380493164,32.869029078674316C73.13621380493164,33.53442907867432,72.65772380493163,34.10542907867432,72.17922380493164,34.59042907867432C72.00745380493164,34.74932907867432,71.82751380493164,34.90812907867432,71.64757380493164,35.058429078674315C71.46353380493164,35.20862907867432,71.28767380493164,35.34602907867432,71.11591380493164,35.46622907867432C70.94414380493164,35.586429078674314,70.78465380493164,35.693729078674316,70.64151380493163,35.78392907867432C70.49837380493165,35.87402907867431,70.34705380493165,35.95132907867432,70.19573380493163,36.01142907867431C69.83174380493165,36.17022907867432,69.41460380493164,36.27322907867432,68.94429380493165,36.31192907867432C68.47398380493163,36.35052907867431,67.75009380493164,36.372029078674316,66.77266380493164,36.372029078674316L63.98349380493164,36.372029078674316L65.04681380493165,32.14782907867432C65.25947380493164,32.14782907867432,65.46396380493164,32.15212907867432,65.66436380493164,32.160729078674315C65.86475380493164,32.169329078674316,66.06106380493163,32.17362907867432,66.25328380493164,32.17362907867432C66.86673380493164,32.17362907867432,67.33704380493164,32.083429078674314,67.66013380493165,31.90312907867432C67.98730380493164,31.722829078674316,68.19588380493164,31.430929078674318,68.29403380493164,31.027429078674317C68.33083380493164,30.945829078674315,68.35129380493164,30.855729078674315,68.35129380493164,30.756929078674318C68.35129380493164,30.658229078674317,68.35129380493164,30.546629078674314,68.35129380493164,30.426429078674317C68.35129380493164,30.306229078674317,68.34720380493164,30.181729078674316,68.33493380493164,30.048629078674317C68.32675380493164,29.91982907867432,68.31039380493164,29.782529078674315,68.28995380493164,29.640829078674315L66.88309380493165,17.298829078674316L72.34691380493165,17.298829078674316L72.57594380493164,26.232269078674314L77.14819380493164,17.298829078674316L82.61199380493164,17.298829078674316L75.14019380493164,30.516529078674317Z" fill="#ffffff" fill-opacity="1" style="mix-blend-mode:passthrough"/></g><g><path d="M90.26385594848632,19.380854318695068C90.57057594848632,19.058894318695067,90.86094594848633,18.76698431869507,91.13905594848633,18.505114318695068C91.41714594848632,18.24325431869507,91.69116594848633,18.02001431869507,91.95698594848633,17.83972131869507C92.47636594848633,17.47912231869507,92.99986594848633,17.221548318695067,93.53966594848633,17.071295318695068C94.07546594848633,16.92104271869507,94.66026594848633,16.84377431869507,95.29416594848632,16.84377431869507C96.57836594848632,16.84377431869507,97.55576594848633,17.16144231869507,98.22646594848632,17.79249331869507C98.89716594848633,18.42784431869507,99.23256594848633,19.325044318695067,99.23256594848633,20.49270431869507C99.23256594848633,20.776034318695068,99.21206594848633,21.07224431869507,99.17526594848633,21.381334318695068C99.13846594848633,21.69471431869507,99.06896594848632,22.020964318695068,98.97486594848633,22.36010431869507L96.64786594848633,31.774374318695067L91.41714594848632,31.774374318695067L93.45786594848633,23.47625431869507C93.49466594848633,23.317414318695068,93.52336594848633,23.17146431869507,93.54376594848632,23.03838431869507C93.56426594848632,22.909604318695067,93.57236594848632,22.780814318695068,93.57236594848632,22.660614318695067C93.57236594848632,22.257084318695068,93.45786594848633,21.952294318695067,93.22886594848633,21.74193431869507C92.99986594848633,21.531584318695067,92.66446594848632,21.42426431869507,92.22281594848633,21.42426431869507C91.51529594848633,21.42426431869507,90.90593594848633,21.67754431869507,90.39881594848633,22.17981431869507C89.89169594848633,22.68208431869507,89.51134594848632,23.416154318695067,89.26188594848632,24.38205431869507L87.45015594848633,31.774374318695067L82.24806594848633,31.774374318695067L85.81427594848633,17.290248318695067L90.70146594848633,17.290248318695067L90.26385594848632,19.380854318695068Z" fill="#ffffff" fill-opacity="1" style="mix-blend-mode:passthrough"/></g><g><path d="M107.16654153320313,31.78296533279419L101.93582153320312,31.78296533279419L104.72499153320312,20.52705533279419L102.79875253320313,20.52705533279419L103.57579153320313,17.298825332794188L105.50203153320312,17.298825332794188C106.02142153320312,15.22538533279419,106.79437153320312,13.76151533279419,107.82907153320312,12.907225332794189C108.86376153320313,12.052951332794189,110.36059153320312,11.62366533279419,112.31542153320312,11.62366533279419C112.52812153320312,11.62366533279419,112.73672153320312,11.62366533279419,112.94932153320312,11.62366533279419C113.16202153320313,11.62366533279419,113.37062153320312,11.62366533279419,113.58322153320313,11.62366533279419C113.79592153320313,11.62366533279419,114.00452153320313,11.62796238279419,114.21712153320313,11.640840432794189C114.42572153320313,11.64942143279419,114.63842153320313,11.653718532794189,114.85102153320312,11.653718532794189L113.90222153320312,15.487245332794188C113.76732153320313,15.465785332794189,113.65272153320312,15.45718533279419,113.55872153320313,15.45718533279419C113.46052153320312,15.45718533279419,113.37462153320313,15.45718533279419,113.30102153320313,15.45718533279419C113.26422153320313,15.45718533279419,113.22332153320312,15.45718533279419,113.18652153320312,15.45718533279419C113.14972153320312,15.45718533279419,113.10062153320312,15.45718533279419,113.04342153320313,15.45718533279419C112.39312153320313,15.45718533279419,111.89420153320313,15.57308533279419,111.54657153320312,15.804905332794188C111.20304153320312,16.03672533279419,110.96175153320313,16.41449533279419,110.82678153320313,16.93823533279419L110.74090153320313,17.298825332794188L113.44422153320312,17.298825332794188L112.66712153320313,20.52705533279419L109.96386153320313,20.52705533279419L107.16654153320313,31.78296533279419Z" fill="#ffffff" fill-opacity="1" style="mix-blend-mode:passthrough"/></g><g><path d="M126.31449963378907,30.065771098327637C124.51089963378907,31.495271098327635,122.49060963378906,32.20797109832763,120.24946963378906,32.20797109832763C118.37229963378905,32.20797109832763,116.89591963378906,31.701371098327638,115.82033963378906,30.68397109832764C114.74884163378906,29.666571098327637,114.20899963378906,28.314271098327637,114.20899963378906,26.627211098327635C114.20899963378906,26.283781098327637,114.23353673378907,25.944641098327637,114.28261103378907,25.60121109832764C114.33168563378906,25.257781098327637,114.39302863378906,24.905771098327637,114.47073363378907,24.545171098327636C115.02692563378906,22.291421098327636,116.20067963378906,20.445491098327636,117.99194963378906,19.007381098327638C119.78323963378907,17.569269098327638,121.79944963378907,16.848071098327637,124.04468963378906,16.848071098327637C125.92189963378907,16.848071098327637,127.39819963378906,17.363220098327638,128.47379963378907,18.389211098327635C129.54529963378906,19.41521109832764,130.08519963378907,20.763161098327636,130.08519963378907,22.433091098327637C130.08519963378907,22.755051098327638,130.06469963378908,23.098481098327635,130.02789963378905,23.459091098327637C129.99109963378908,23.819691098327638,129.92159963378907,24.184581098327637,129.82749963378907,24.54518109832764C129.28359963378907,26.79462109832764,128.11389963378906,28.636271098327637,126.31449963378907,30.065771098327637ZM119.54194963378906,25.56687109832764C119.49286963378907,25.867381098327638,119.46833963378906,26.159291098327635,119.46833963378906,26.442621098327635C119.46833963378906,27.10797109832764,119.61147963378906,27.601671098327635,119.89774963378906,27.919371098327638C120.18402963378907,28.241371098327637,120.61753963378906,28.400171098327636,121.19008963378906,28.400171098327636C121.99575963378906,28.400171098327636,122.67874963378907,28.078171098327637,123.24720963378905,27.434271098327635C123.81158963378905,26.790341098327637,124.24919963378906,25.824451098327636,124.55589963378907,24.536591098327637C124.64999963378907,24.154521098327635,124.71949963378907,23.806801098327636,124.75629963378907,23.497711098327635C124.79309963378907,23.184321098327636,124.81359963378907,22.900991098327637,124.81359963378907,22.639141098327638C124.81359963378907,21.973751098327636,124.67039963378906,21.484361098327636,124.38419963378907,21.16239109832764C124.09786963378906,20.840431098327638,123.66435963378906,20.681591098327637,123.09180963378907,20.681591098327637C122.28613963378906,20.681591098327637,121.60724963378907,20.999261098327636,121.05105963378907,21.63031109832764C120.49486963378907,22.261361098327637,120.05316963378907,23.235841098327636,119.73007963378906,24.540871098327635C119.65236963378906,24.922941098327637,119.59101963378906,25.266361098327636,119.54194963378906,25.56687109832764Z" fill="#ffffff" fill-opacity="1" style="mix-blend-mode:passthrough"/></g><g><path d="M145.22931744384766,30.065771098327637C143.42571744384765,31.495271098327635,141.40543744384766,32.20797109832763,139.16428744384766,32.20797109832763C137.28711744384765,32.20797109832763,135.81073744384764,31.701371098327638,134.73515744384767,30.68397109832764C133.66365944384765,29.666571098327637,133.12381744384766,28.314271098327637,133.12381744384766,26.627211098327635C133.12381744384766,26.283781098327637,133.14835454384766,25.944641098327637,133.19742884384766,25.60121109832764C133.24650344384764,25.257781098327637,133.30784644384767,24.905771098327637,133.38555144384765,24.545171098327636C133.94174344384766,22.291421098327636,135.11549744384766,20.445491098327636,136.90676744384766,19.007381098327638C138.69805744384766,17.569269098327638,140.71428744384767,16.848071098327637,142.95951744384766,16.848071098327637C144.83671744384765,16.848071098327637,146.31311744384766,17.363220098327638,147.38861744384766,18.389211098327635C148.46011744384765,19.41521109832764,149.00001744384767,20.763161098327636,149.00001744384767,22.433091098327637C149.00001744384767,22.755051098327638,148.97951744384767,23.098481098327635,148.94271744384764,23.459091098327637C148.90591744384767,23.819691098327638,148.83641744384767,24.184581098327637,148.74231744384767,24.54518109832764C148.19841744384766,26.79462109832764,147.02871744384765,28.636271098327637,145.22931744384766,30.065771098327637ZM138.45676744384767,25.56687109832764C138.40768744384766,25.867381098327638,138.38315744384767,26.159291098327635,138.38315744384767,26.442621098327635C138.38315744384767,27.10797109832764,138.52629744384765,27.601671098327635,138.81256744384766,27.919371098327638C139.09884744384766,28.241371098327637,139.53235744384764,28.400171098327636,140.10489744384765,28.400171098327636C140.91055744384767,28.400171098327636,141.59354744384765,28.078171098327637,142.16202744384765,27.434271098327635C142.72640744384765,26.790341098327637,143.16401744384765,25.824451098327636,143.47071744384766,24.536591098327637C143.56481744384766,24.154521098327635,143.63431744384766,23.806801098327636,143.67111744384766,23.497711098327635C143.70791744384766,23.184321098327636,143.72841744384766,22.900991098327637,143.72841744384766,22.639141098327638C143.72841744384766,21.973751098327636,143.58521744384765,21.484361098327636,143.29901744384765,21.16239109832764C143.01268744384765,20.840431098327638,142.57917744384767,20.681591098327637,142.00663744384767,20.681591098327637C141.20097744384765,20.681591098327637,140.52207744384765,20.999261098327636,139.96588744384766,21.63031109832764C139.40969744384765,22.261361098327637,138.96799744384765,23.235841098327636,138.64491744384765,24.540871098327635C138.56718744384764,24.922941098327637,138.50583744384767,25.266361098327636,138.45676744384767,25.56687109832764Z" fill="#ffffff" fill-opacity="1" style="mix-blend-mode:passthrough"/></g></g><g><path d="M18.05218194244385,42.00000220031738L21.990551942443847,34.62060220031738L30.971501942443847,34.62060220031738L39.13860194244385,19.870302200317383L21.990551942443847,19.870302200317383L13.835701942443848,34.916802200317385L18.05218194244385,42.00000220031738Z" fill="#0000FC" fill-opacity="1" style="mix-blend-mode:passthrough"/></g><g style="opacity:0.699999988079071;"><path d="M25.0823,6L21.1481,13.37515L12.16711,13.37515L4,28.1297L21.1481,28.1297L29.2988,13.08322L25.0823,6Z" fill="#019FFC" fill-opacity="1" style="mix-blend-mode:passthrough"/></g></g></g></svg>
