<?xml version="1.0" encoding="UTF-8"?>
<svg width="20px" height="20px" viewBox="0 0 20 20" version="1.1" xmlns="http://www.w3.org/2000/svg" xmlns:xlink="http://www.w3.org/1999/xlink">
    <title>编组 5</title>
    <g id="新官网" stroke="none" stroke-width="1" fill="none" fill-rule="evenodd">
        <g id="尾部" transform="translate(-437.000000, -158.000000)">
            <g id="编组-5" transform="translate(437.000000, 158.000000)">
                <rect id="矩形备份-2" x="0" y="0" width="20" height="20"></rect>
                <g id="编组" transform="translate(4.000000, 3.000000)" fill="#282828" fill-rule="nonzero">
                    <path d="M11.9831243,5.79550781 C10.8018282,5.79550781 9.65287707,5.42226562 8.70784015,4.73183594 L8.70784015,9.5484375 C8.70784015,12.0080078 6.75870151,14 4.35392008,14 C1.94913864,14 0,12.0080078 0,9.5484375 C0,7.08886719 1.94913864,5.096875 4.35392008,5.096875 C4.59439822,5.096875 4.82784484,5.11738281 5.05566624,5.15566406 L5.05566624,7.70683594 C4.83768897,7.6234375 4.60564866,7.58105469 4.37220204,7.58105469 C3.29919137,7.58105469 2.42868862,8.46972656 2.42868862,9.56757812 C2.42868862,10.6640625 3.29919137,11.5541016 4.37220204,11.5541016 C5.4438064,11.5541016 6.31430915,10.6640625 6.31430915,9.56757812 L6.31430915,0 L8.74299777,0 C8.74299777,1.83886719 10.201336,3.32910156 12,3.32910156 L12,5.79414062 L11.9831243,5.79550781" id="路径"></path>
                </g>
            </g>
        </g>
    </g>
</svg>