<svg xmlns="http://www.w3.org/2000/svg" xmlns:xlink="http://www.w3.org/1999/xlink" fill="none" version="1.1" width="171" height="48" viewBox="0 0 171 48"><g><g></g><g><g><g><path d="M58.87936482666016,26.640661540102958L68.98363482666016,26.640661540102958L67.45953482666016,32.64216154010296L50.574134826660156,32.64216154010296L56.438924826660156,9.499961540102959L63.220034826660154,9.499961540102959L58.87936482666016,26.640661540102958Z" fill="#000000" fill-opacity="1" style="mix-blend-mode:passthrough"/></g><g><path d="M83.8963586303711,31.186256991577146C83.2645586303711,32.227556991577146,82.6664586303711,33.130756991577144,82.09735863037109,33.89085699157715C81.5330586303711,34.65585699157715,80.9687586303711,35.312256991577144,80.4044686303711,35.86995699157715C80.20189863037109,36.05255699157715,79.9896986303711,36.23515699157715,79.7774886303711,36.40785699157715C79.5604386303711,36.58065699157714,79.3530586303711,36.73855699157715,79.15049863037109,36.87675699157715C78.9479286303711,37.01495699157715,78.75983863037109,37.13835699157715,78.5910286303711,37.24195699157715C78.42221863037109,37.345656991577144,78.2437686303711,37.43445699157715,78.0653186303711,37.50355699157715C77.6360686303711,37.68615699157715,77.1441186303711,37.80465699157715,76.58947863037109,37.84905699157715C76.0348386303711,37.89345699157715,75.1811486303711,37.91815699157715,74.02845863037109,37.91815699157715L70.7391586303711,37.91815699157715L71.9931486303711,33.06165699157715C72.24393863037109,33.06165699157715,72.4850886303711,33.06665699157715,72.7214286303711,33.07655699157715C72.9577486303711,33.08635699157715,73.1892586303711,33.09135699157714,73.41593863037109,33.09135699157714C74.13938863037109,33.09135699157714,74.6940386303711,32.98765699157715,75.07505863037109,32.78035699157715C75.46089863037109,32.57305699157715,75.70686863037109,32.23745699157715,75.8226186303711,31.77355699157715C75.86602863037109,31.67975699157715,75.8901486303711,31.57615699157715,75.8901486303711,31.46265699157715C75.8901486303711,31.34905699157715,75.8901486303711,31.220756991577147,75.8901486303711,31.08255699157715C75.8901486303711,30.94435699157715,75.88531863037109,30.801256991577148,75.87085863037109,30.64825699157715C75.8612086303711,30.500256991577146,75.8419186303711,30.34225699157715,75.81780863037109,30.179356991577148L74.15868863037109,15.990056991577148L80.60222863037109,15.990056991577148L80.8723586303711,26.26065699157715L86.2644586303711,15.990056991577148L92.7079586303711,15.990056991577148L83.8963586303711,31.186256991577146Z" fill="#000000" fill-opacity="1" style="mix-blend-mode:passthrough"/></g><g><path d="M101.73185900268555,18.383728427734376C102.09357900268554,18.013568427734374,102.43605900268554,17.677968427734374,102.76395900268555,17.376898427734375C103.09195900268554,17.075838427734375,103.41505900268555,16.819188427734375,103.72855900268554,16.611908427734374C104.34115900268554,16.197336427734374,104.95845900268554,15.901208427734375,105.59505900268555,15.728465427734376C106.22695900268555,15.555722427734375,106.91655900268555,15.466888427734375,107.66415900268555,15.466888427734375C109.17855900268555,15.466888427734375,110.33125900268554,15.832105427734374,111.12225900268555,16.557608427734376C111.91325900268555,17.288058427734374,112.30875900268555,18.319568427734374,112.30875900268555,19.661998427734375C112.30875900268555,19.987738427734374,112.28465900268554,20.328288427734375,112.24125900268555,20.683638427734376C112.19775900268554,21.043928427734375,112.11575900268555,21.419008427734376,112.00485900268555,21.808908427734373L109.26055900268554,32.63228842773438L103.09195900268554,32.63228842773438L105.49865900268554,23.092128427734373C105.54205900268555,22.909518427734376,105.57575900268554,22.741718427734376,105.59985900268555,22.588718427734374C105.62405900268554,22.440658427734377,105.63365900268555,22.292588427734376,105.63365900268555,22.154398427734375C105.63365900268555,21.690468427734373,105.49865900268554,21.340058427734377,105.22855900268554,21.098208427734374C104.95845900268554,20.856378427734377,104.56295900268555,20.732998427734376,104.04205900268555,20.732998427734376C103.20765900268555,20.732998427734376,102.48905900268555,21.024178427734377,101.89102900268554,21.601638427734375C101.29297900268554,22.179088427734374,100.84442900268554,23.023038427734374,100.55022900268554,24.133508427734377L98.41363900268554,32.63228842773438L92.27875900268555,32.63228842773438L96.48442900268554,15.980192427734375L102.24793900268554,15.980192427734375L101.73185900268555,18.383728427734376Z" fill="#000000" fill-opacity="1" style="mix-blend-mode:passthrough"/></g><g><path d="M121.66537461914062,32.64222501449585L115.49673461914062,32.64222501449585L118.78603461914062,19.70152501449585L116.51439461914063,19.70152501449585L117.43076461914063,15.99005501449585L119.70240461914062,15.99005501449585C120.31492461914063,13.60625501449585,121.22647461914062,11.92327501449585,122.44670461914063,10.94111501449585C123.66692461914063,9.95896701449585,125.43214461914063,9.46542501449585,127.73753461914063,9.46542501449585C127.98833461914063,9.46542501449585,128.2343346191406,9.46542501449585,128.48513461914064,9.46542501449585C128.73593461914064,9.46542501449585,128.9818346191406,9.46542501449585,129.23263461914064,9.46542501449585C129.48343461914064,9.46542501449585,129.72943461914062,9.47036525449585,129.98023461914062,9.48517091449585C130.22623461914063,9.495036314495849,130.47703461914062,9.49997661449585,130.72783461914062,9.49997661449585L129.60883461914062,13.90730501449585C129.44973461914063,13.88263501449585,129.31463461914063,13.87275501449585,129.20373461914062,13.87275501449585C129.08793461914064,13.87275501449585,128.98663461914063,13.87275501449585,128.89983461914062,13.87275501449585C128.85643461914063,13.87275501449585,128.80823461914062,13.87275501449585,128.76483461914063,13.87275501449585C128.72143461914064,13.87275501449585,128.66353461914062,13.87275501449585,128.59603461914062,13.87275501449585C127.82913461914063,13.87275501449585,127.24073461914062,14.00600501449585,126.83083461914063,14.27252501449585C126.42563461914062,14.53904501449585,126.14113461914063,14.97336501449585,125.98193461914063,15.57548501449585L125.88063461914062,15.99005501449585L129.06863461914062,15.99005501449585L128.15233461914062,19.70152501449585L124.96428461914063,19.70152501449585L121.66537461914062,32.64222501449585Z" fill="#000000" fill-opacity="1" style="mix-blend-mode:passthrough"/></g><g><path d="M144.24671920166014,30.668028460693357C142.11981920166016,32.31152846069336,139.73720920166016,33.13072846069336,137.09420920166016,33.13072846069336C134.88044920166016,33.13072846069336,133.13932920166016,32.54842846069336,131.87088920166016,31.37872846069336C130.60726120166015,30.20902846069336,129.97061920166016,28.654328460693357,129.97061920166016,26.714728460693358C129.97061920166016,26.31992846069336,129.99955610166015,25.930028460693357,130.05742990166016,25.535128460693358C130.11530420166017,25.140318460693358,130.18764620166016,24.73561846069336,130.27928420166015,24.32103846069336C130.93520720166015,21.72993846069336,132.31942920166014,19.60771846069336,134.43188920166017,17.95434846069336C136.54437920166015,16.30097646069336,138.92211920166017,15.47182846069336,141.56991920166016,15.47182846069336C143.78371920166015,15.47182846069336,145.52481920166016,16.06408546069336,146.79331920166015,17.243648460693358C148.05691920166015,18.42321846069336,148.69351920166017,19.97292846069336,148.69351920166017,21.89281846069336C148.69351920166017,22.26297846069336,148.66941920166016,22.65780846069336,148.62601920166014,23.07239846069336C148.58261920166015,23.48696846069336,148.50061920166016,23.906478460693357,148.38971920166017,24.321058460693358C147.74821920166016,26.90722846069336,146.36881920166016,29.02452846069336,144.24671920166014,30.668028460693357ZM136.25981920166015,25.49562846069336C136.20194920166017,25.841128460693362,136.17300920166016,26.17672846069336,136.17300920166016,26.50252846069336C136.17300920166016,27.26752846069336,136.34181920166014,27.83502846069336,136.67941920166015,28.20032846069336C137.01703920166017,28.570428460693357,137.52827920166015,28.753028460693358,138.20349920166015,28.753028460693358C139.15362920166015,28.753028460693358,139.95907920166016,28.382928460693357,140.62951920166014,27.64262846069336C141.29501920166015,26.902228460693358,141.81111920166015,25.79182846069336,142.17281920166016,24.31117846069336C142.28381920166015,23.871918460693358,142.36571920166017,23.47214846069336,142.40911920166016,23.11679846069336C142.45261920166016,22.75650846069336,142.47671920166016,22.430768460693358,142.47671920166016,22.129708460693358C142.47671920166016,21.36472846069336,142.30791920166016,20.80207846069336,141.97031920166015,20.43192846069336C141.63261920166016,20.061768460693358,141.12141920166016,19.87915846069336,140.44621920166014,19.87915846069336C139.49607920166017,19.87915846069336,138.69544920166015,20.24437846069336,138.03952920166014,20.96987846069336C137.38360920166016,21.69538846069336,136.86270920166015,22.815728460693357,136.48168920166015,24.31609846069336C136.39003920166016,24.75535846069336,136.31768920166016,25.150188460693357,136.25981920166015,25.49562846069336Z" fill="#000000" fill-opacity="1" style="mix-blend-mode:passthrough"/></g><g><path d="M166.55316146240233,30.668028460693357C164.42626146240235,32.31152846069336,162.04367146240236,33.13072846069336,159.40065146240235,33.13072846069336C157.18689146240234,33.13072846069336,155.44577146240235,32.54842846069336,154.17733146240235,31.37872846069336C152.91370346240234,30.20902846069336,152.27706146240234,28.654328460693357,152.27706146240234,26.714728460693358C152.27706146240234,26.31992846069336,152.30599836240233,25.930028460693357,152.36387216240234,25.535128460693358C152.42174646240235,25.140318460693358,152.49408846240235,24.73561846069336,152.58572646240233,24.32103846069336C153.24164946240234,21.72993846069336,154.62587146240233,19.60771846069336,156.73833146240236,17.95434846069336C158.85082146240234,16.30097646069336,161.22858146240233,15.47182846069336,163.87636146240234,15.47182846069336C166.09016146240234,15.47182846069336,167.83126146240235,16.06408546069336,169.09976146240234,17.243648460693358C170.36336146240234,18.42321846069336,170.99996146240235,19.97292846069336,170.99996146240235,21.89281846069336C170.99996146240235,22.26297846069336,170.97586146240235,22.65780846069336,170.93246146240233,23.07239846069336C170.88906146240234,23.48696846069336,170.80706146240234,23.906478460693357,170.69616146240236,24.321058460693358C170.05466146240235,26.90722846069336,168.67526146240235,29.02452846069336,166.55316146240233,30.668028460693357ZM158.56626146240234,25.49562846069336C158.50839146240236,25.841128460693362,158.47945146240235,26.17672846069336,158.47945146240235,26.50252846069336C158.47945146240235,27.26752846069336,158.64826146240233,27.83502846069336,158.98586146240234,28.20032846069336C159.32348146240236,28.570428460693357,159.83472146240234,28.753028460693358,160.50992146240233,28.753028460693358C161.46004146240233,28.753028460693358,162.26551146240234,28.382928460693357,162.93596146240233,27.64262846069336C163.60146146240234,26.902228460693358,164.11756146240234,25.79182846069336,164.47926146240235,24.31117846069336C164.59016146240234,23.871918460693358,164.67226146240233,23.47214846069336,164.71556146240235,23.11679846069336C164.75906146240234,22.75650846069336,164.78316146240235,22.430768460693358,164.78316146240235,22.129708460693358C164.78316146240235,21.36472846069336,164.61436146240234,20.80207846069336,164.27676146240233,20.43192846069336C163.93906146240235,20.061768460693358,163.42786146240235,19.87915846069336,162.75266146240233,19.87915846069336C161.80254146240233,19.87915846069336,161.00191146240235,20.24437846069336,160.34598146240234,20.96987846069336C159.69006146240235,21.69538846069336,159.16917146240235,22.815728460693357,158.78815146240234,24.31609846069336C158.69648146240235,24.75535846069336,158.62413146240235,25.150188460693357,158.56626146240234,25.49562846069336Z" fill="#000000" fill-opacity="1" style="mix-blend-mode:passthrough"/></g></g><g><path d="M16.571875207214354,44.38853211364746L21.216435207214353,35.90453211364746L31.807745207214356,35.90453211364746L41.43934520721436,18.94643211364746L21.216435207214353,18.94643211364746L11.599345207214355,36.24513211364746L16.571875207214354,44.38853211364746Z" fill="#0000FC" fill-opacity="1" style="mix-blend-mode:passthrough"/></g><g style="opacity:0.699999988079071;"><path d="M24.8626,3L20.2229,11.47907L9.63156,11.47907L0,28.4421L20.2229,28.4421L29.8352,11.14345L24.8626,3Z" fill="#019FFC" fill-opacity="1" style="mix-blend-mode:passthrough"/></g></g></g></svg>
