<?xml version="1.0" encoding="UTF-8"?>
<svg xmlns="http://www.w3.org/2000/svg" xmlns:xlink="http://www.w3.org/1999/xlink" version="1.1" viewBox="0 0 171 48">
  <defs>
    <style>
      .cls-1 {
        fill: none;
      }

      .cls-2 {
        fill: #212121;
      }

      .cls-3 {
        clip-path: url(#clippath-11);
      }

      .cls-4 {
        clip-path: url(#clippath-16);
      }

      .cls-5 {
        clip-path: url(#clippath-10);
      }

      .cls-6 {
        clip-path: url(#clippath-15);
      }

      .cls-7 {
        clip-path: url(#clippath-13);
      }

      .cls-8 {
        clip-path: url(#clippath-14);
      }

      .cls-9 {
        clip-path: url(#clippath-12);
      }

      .cls-10 {
        clip-path: url(#clippath-1);
      }

      .cls-11 {
        clip-path: url(#clippath-3);
      }

      .cls-12 {
        clip-path: url(#clippath-4);
      }

      .cls-13 {
        clip-path: url(#clippath-2);
      }

      .cls-14 {
        clip-path: url(#clippath-7);
      }

      .cls-15 {
        clip-path: url(#clippath-6);
      }

      .cls-16 {
        clip-path: url(#clippath-9);
      }

      .cls-17 {
        clip-path: url(#clippath-8);
      }

      .cls-18 {
        clip-path: url(#clippath-5);
      }

      .cls-19 {
        fill: #e98a13;
      }

      .cls-20 {
        fill: #d1d1d1;
      }

      .cls-21 {
        clip-path: url(#clippath);
      }
    </style>
    <clipPath id="clippath">
      <path class="cls-1" d="M69.3,14.3v-2.3h-3.3v2.3h3.3ZM69.3,18.5v-2.2h-3.3v.7c0,.4,0,.9,0,1.5h3.4ZM71.4,9.9v13.3c0,.7,0,1.2-.3,1.5-.2.3-.5.6-.8.7-.4.1-1,.2-1.7.2s-.9,0-1.5,0l-.4-2.1c.7,0,1.4.1,1.9.1s.5,0,.6-.2c.1-.1.1-.4.1-.7v-2.1h-3.5c-.1,1.1-.4,2-.8,2.8-.4.8-.9,1.7-1.5,2.6l-1.9-1.4c.7-.9,1.2-1.6,1.5-2.3.3-.6.5-1.4.6-2.3.1-.9.1-2.3.1-4v-6.1h7.5ZM58.3,17.6v3.6h2.1v-3.6h-2.1ZM60.4,15.6v-3.2h-2.1v3.2h2.1ZM56.4,10.2h6v13.1h-6v-13.1Z"/>
    </clipPath>
    <clipPath id="clippath-1">
      <path class="cls-1" d="M91.3,19.9h-1.1v4c.2,0,.4,0,.6,0s.4,0,.4-.2c0-.1.1-.3.1-.6v-3.3ZM90.8,10.1h1.9v3.9h-9.9v-3.9h2v2.2h2v-3.1h1.9v3.1h2v-2.2ZM93.3,16.9h-4.6c0,.3-.2.8-.4,1.3h4.9v5.7c0,.5,0,.9-.2,1.2-.1.3-.3.5-.6.6-.3.1-.6.1-1.1.1s-.9,0-1.4,0l-.2-1.1h-1.3v-4.6h-1.2v4.9h-1.7v-4.9h-1v5.8h-1.9v-7.5h3.4c.2-.6.3-1,.4-1.3h-3.7v-1.8h10.6v1.8ZM80.7,21h.4c0-.1.8-.4.8-.4l.3,2.1c-2.1.6-3.7,1-4.9,1.4l-.4-2.1,2-.5v-4h-1.3v-2h1.3v-3.2h-1.6v-2h5v2h-1.5v3.2h1.3v2h-1.3v3.5Z"/>
    </clipPath>
    <clipPath id="clippath-2">
      <path class="cls-1" d="M107.9,19.7v3.5h2l-1.1-1c1-1,1.7-1.9,2.3-2.6h-3.1ZM103.5,14.3h6.8c-1.4-.9-2.6-1.8-3.4-2.8-.8.9-1.9,1.9-3.3,2.8ZM102.5,19.7l.8.9,1.6,1.8-1.2.9h2.1v-3.5h-3.3ZM112.9,20.6c-.9,1.1-1.6,2-2.3,2.6h3.9v2h-15.5v-2h4c-1-1.2-1.8-2-2.2-2.5l1.3-1h-2.1v-2h5.7v-1.4h-3.6v-1.1c-.8.4-1.7.8-2.6,1.2l-1-2c1.8-.6,3.3-1.4,4.5-2.2,1.2-.9,2.3-1.8,3.1-3h1.7c1.7,2.3,4.2,3.9,7.5,5l-.9,2c-.9-.3-1.8-.7-2.8-1.2v1.3h-3.6v1.4h5.8v2h-2.1l1.3.8Z"/>
    </clipPath>
    <clipPath id="clippath-3">
      <path class="cls-1" d="M131.5,19.8v3.2h4.8v2.1h-16v-2.1h4.8v-3.3l-1.7.8c-.4-1.1-.9-2.4-1.5-3.8-.6-1.4-1.1-2.6-1.6-3.5l2-.9c.3.6.8,1.5,1.3,2.8s1,2.3,1.4,3.3v-8.9h2.3v13.5h1.8v-13.5h2.3v9.2c.5-1,1-2,1.4-3.2.5-1.1.9-2.2,1.3-3.1l2.1.9c-.4.9-.9,2.1-1.6,3.6-.7,1.5-1.3,2.7-1.8,3.6l-1.5-.8Z"/>
    </clipPath>
    <clipPath id="clippath-4">
      <polygon class="cls-1" points="61.4 31.7 61.9 31.7 61.9 36.9 61.3 36.9 61.3 32.9 59.7 35.6 59.3 35.6 57.6 32.9 57.6 36.9 57 36.9 57 31.7 57.6 31.7 59.5 34.8 61.4 31.7"/>
    </clipPath>
    <clipPath id="clippath-5">
      <path class="cls-1" d="M67.3,36.9h-.6v-3.7h.6v3.7ZM66.7,32.4c0,0-.1-.2-.1-.3s0-.2.1-.3c0,0,.2-.1.3-.1s.2,0,.3.1c0,0,.1.2.1.3s0,.2-.1.3c0,0-.2.1-.3.1s-.2,0-.3-.1Z"/>
    </clipPath>
    <clipPath id="clippath-6">
      <path class="cls-1" d="M74.7,33.5c.3.3.4.6.4,1.1v2.3h-.6v-2.1c0-.4,0-.6-.2-.8s-.4-.3-.6-.3-.4,0-.5.1c-.1,0-.3.2-.4.4-.1.2-.1.4-.1.6v2.1h-.6v-3.7h.5c0,.3,0,.4,0,.6.1-.2.3-.4.5-.5.2-.1.5-.2.7-.2.4,0,.8.1,1,.4Z"/>
    </clipPath>
    <clipPath id="clippath-7">
      <path class="cls-1" d="M82,36.1c.2-.2.3-.6.3-1s-.1-.8-.3-1c-.2-.2-.5-.3-.8-.3s-.6.1-.8.4c-.2.3-.3.6-.3,1s.1.8.3,1c.2.3.5.4.8.4s.5-.1.8-.3ZM82.9,33.2v3.5c0,.7-.2,1.2-.5,1.5-.3.3-.8.5-1.2.5s-.7,0-1-.3c-.3-.1-.5-.4-.6-.7l.5-.3c.2.4.5.6,1.1.6s.6-.1.8-.3c.2-.2.3-.6.3-1.1v-.3c-.1.2-.3.4-.5.5-.2.1-.4.2-.7.2s-.5,0-.8-.2c-.3-.1-.5-.4-.6-.7-.1-.3-.3-.6-.3-1s0-.8.2-1c.1-.3.4-.5.6-.7.3-.1.5-.2.8-.2s.5,0,.7.2c.2.1.4.3.5.5,0-.2,0-.4,0-.6h.5Z"/>
    </clipPath>
    <clipPath id="clippath-8">
      <path class="cls-1" d="M89.4,33.2c.1,0,.2,0,.3.1l-.2.5c-.1,0-.2,0-.4,0-.3,0-.5.1-.7.3-.2.2-.3.6-.3,1v1.9h-.6v-3.7h.5c0,.3,0,.4,0,.6.2-.5.5-.7,1-.7s.3,0,.3,0Z"/>
    </clipPath>
    <clipPath id="clippath-9">
      <path class="cls-1" d="M96.3,33.2h.6v3.7h-.5c0-.3,0-.4,0-.6-.1.2-.3.4-.5.5-.2.1-.5.2-.7.2-.4,0-.7-.1-1-.4-.3-.3-.4-.6-.4-1.1v-2.3h.6v2.1c0,.4,0,.6.2.8.1.2.4.3.6.3s.4,0,.5-.1c.1,0,.3-.2.4-.4.1-.2.1-.4.1-.6v-2.1h0Z"/>
    </clipPath>
    <clipPath id="clippath-10">
      <path class="cls-1" d="M102.2,36.9h-.6v-3.7h.6v3.7ZM101.6,32.4c0,0-.1-.2-.1-.3s0-.2.1-.3c0,0,.2-.1.3-.1s.2,0,.3.1c0,0,.1.2.1.3s0,.2-.1.3c0,0-.2.1-.3.1s-.2,0-.3-.1Z"/>
    </clipPath>
    <clipPath id="clippath-11">
      <path class="cls-1" d="M114.7,34.8v-.6h1.8v2c-.1.2-.4.4-.7.6-.3.2-.7.2-1.1.2s-.9-.1-1.3-.4c-.4-.2-.7-.5-.9-1-.2-.4-.3-.9-.3-1.4s.1-1,.3-1.4c.2-.4.5-.7.9-1,.4-.2.8-.4,1.3-.4s.8,0,1.1.3c.3.2.6.4.7.8l-.5.3c-.1-.2-.3-.4-.5-.5-.2-.1-.5-.2-.8-.2s-.6,0-.9.3c-.3.2-.5.4-.6.8-.1.3-.2.7-.2,1.1s0,.8.3,1.1c.1.3.4.6.7.8.3.2.6.3,1,.3s.9-.1,1.1-.4v-1.3h-1.2Z"/>
    </clipPath>
    <clipPath id="clippath-12">
      <path class="cls-1" d="M121.5,35.8c.1.2.3.4.4.5.2.1.4.2.6.2s.4,0,.6-.2c.2-.1.3-.3.4-.5,0-.2.1-.5.1-.7s0-.5-.1-.7c-.1-.2-.2-.4-.4-.5s-.4-.2-.6-.2-.4,0-.6.2-.3.3-.4.5c0,.2-.1.5-.1.7s0,.5.1.7ZM121,34.1c.2-.3.4-.5.6-.7.3-.2.6-.3.9-.3s.6,0,.9.3c.3.2.5.4.6.7.2.3.3.6.3,1s0,.7-.3,1c-.2.3-.4.5-.6.7-.3.2-.6.3-.9.3s-.6,0-.9-.3c-.3-.2-.5-.4-.6-.7-.2-.3-.3-.6-.3-1s0-.7.3-1Z"/>
    </clipPath>
    <clipPath id="clippath-13">
      <rect class="cls-1" x="128.7" y="31.5" width=".6" height="5.4"/>
    </clipPath>
    <clipPath id="clippath-14">
      <path class="cls-1" d="M136.3,36.1c.2-.2.3-.6.3-1s-.1-.8-.3-1c-.2-.2-.5-.3-.8-.3s-.6.1-.8.4c-.2.3-.3.6-.3,1s.1.8.3,1,.5.4.8.4.6-.1.8-.3ZM136.6,31.5h.6v5.4h-.5c0-.3,0-.5,0-.6-.1.3-.3.4-.5.5-.2.1-.5.2-.7.2s-.5,0-.8-.2c-.3-.1-.5-.4-.6-.7s-.2-.6-.2-1,0-.8.2-1c.1-.3.4-.5.6-.7.3-.2.5-.3.8-.3s.5,0,.7.2c.2.1.4.3.5.5v-2.3Z"/>
    </clipPath>
    <clipPath id="clippath-15">
      <path class="cls-1" d="M19.3,40.5c-6.6-7.1-7.4-17.5-1.5-24.3,4-4.6,10.3-6.4,16.3-5.2l-1.2-2.8c-7.6-4.4-16.4-4.3-21.9.8-7.3,6.7-6.3,19.5,2.1,28.6,2.2,2.4,4.7,4.3,7.4,5.6l-1.2-2.8Z"/>
    </clipPath>
    <clipPath id="clippath-16">
      <path class="cls-1" d="M35.4,8c6.6,7.1,7.4,17.5,1.5,24.3-4,4.6-10.3,6.4-16.3,5.2l1.2,2.8c7.6,4.4,16.4,4.3,21.9-.8,7.3-6.7,6.3-19.5-2.1-28.6-2.2-2.4-4.7-4.3-7.4-5.6l1.2,2.8Z"/>
    </clipPath>
  </defs>
  <!-- Generator: Adobe Illustrator 28.6.0, SVG Export Plug-In . SVG Version: 1.2.0 Build 709)  -->
  <g>
    <g id="_图层_1" data-name="图层_1">
      <g class="cls-21">
        <rect class="cls-2" x="56" y="9.5" width="15.8" height="16.8"/>
      </g>
      <g class="cls-10">
        <rect class="cls-2" x="76.5" y="8.8" width="17.2" height="17.4"/>
      </g>
      <g class="cls-13">
        <rect class="cls-2" x="98.1" y="8.9" width="17.5" height="16.7"/>
      </g>
      <g class="cls-11">
        <rect class="cls-2" x="119.9" y="9.1" width="16.7" height="16.4"/>
      </g>
      <g class="cls-12">
        <rect class="cls-2" x="56.6" y="31.4" width="5.6" height="5.9"/>
      </g>
      <g class="cls-18">
        <rect class="cls-2" x="66.2" y="31.4" width="1.5" height="5.9"/>
      </g>
      <g class="cls-15">
        <rect class="cls-2" x="71.6" y="32.8" width="3.8" height="4.5"/>
      </g>
      <g class="cls-14">
        <rect class="cls-2" x="79.1" y="32.8" width="4.1" height="6.3"/>
      </g>
      <g class="cls-17">
        <rect class="cls-2" x="87.2" y="32.8" width="2.8" height="4.5"/>
      </g>
      <g class="cls-16">
        <rect class="cls-2" x="93.4" y="32.9" width="3.8" height="4.5"/>
      </g>
      <g class="cls-5">
        <rect class="cls-2" x="101.1" y="31.4" width="1.5" height="5.9"/>
      </g>
      <g class="cls-3">
        <rect class="cls-2" x="111.8" y="31.2" width="5" height="6.2"/>
      </g>
      <g class="cls-9">
        <rect class="cls-2" x="120.4" y="32.8" width="4.3" height="4.6"/>
      </g>
      <g class="cls-7">
        <rect class="cls-2" x="128.4" y="31.2" width="1.3" height="6.1"/>
      </g>
      <g class="cls-8">
        <rect class="cls-2" x="133.5" y="31.2" width="4.1" height="6.2"/>
      </g>
      <g class="cls-6">
        <rect class="cls-19" x="5.6" y="4.6" width="28.9" height="39.1"/>
      </g>
      <g class="cls-4">
        <rect class="cls-20" x="20.2" y="4.8" width="31.1" height="39.2"/>
      </g>
    </g>
  </g>
</svg>