<?xml version="1.0" encoding="UTF-8"?>
<svg width="227px" height="195px" viewBox="0 0 227 195" version="1.1" xmlns="http://www.w3.org/2000/svg" xmlns:xlink="http://www.w3.org/1999/xlink">
    <title>编组 6</title>
    <g id="跟单" stroke="none" stroke-width="1" fill="none" fill-rule="evenodd">
        <g id="结束跟单" transform="translate(-847.000000, -411.000000)">
            <g id="编组-17" transform="translate(745.000000, 393.000000)">
                <g id="编组-6" transform="translate(102.000000, 18.000000)">
                    <g id="编组-3" fill-rule="nonzero" opacity="0.499651228">
                        <g id="组-4254">
                            <rect id="矩形-2484" stroke="#FFFFFF" stroke-width="1.51665939" fill="#FFFFFF" x="193.013432" y="3.84676507" width="16.6454464" height="14.7339166"></rect>
                            <rect id="矩形-2485" stroke="#FFFFFF" stroke-width="1.51665939" fill="#FFFFFF" x="175.254928" y="20.0610508" width="16.5068963" height="16.2852676"></rect>
                            <rect id="矩形-2486" stroke="#FFFFFF" stroke-width="1.51665939" fill="#FFFFFF" x="158.268534" y="20.0610508" width="16.4413778" height="16.2852676"></rect>
                            <rect id="矩形-2489" stroke="#FFFFFF" stroke-width="1.51665939" fill="#FFFFFF" x="193.013432" y="37.8195542" width="16.6454464" height="14.741744"></rect>
                            <rect id="矩形-2490" stroke="#FFFFFF" stroke-width="1.51665939" fill="#FFFFFF" x="209.999826" y="37.8195542" width="16.241844" height="16.2901633"></rect>
                            <g id="编组" transform="translate(16.269625, 36.369048)" fill="#FFFFFF">
                                <rect id="矩形-2491" stroke="#FFFFFF" stroke-width="1.51665939" x="176.799146" y="18.5168331" width="16.1285311" height="16.2866179"></rect>
                                <rect id="矩形-2513" stroke="#FFFFFF" stroke-width="1.51665939" x="105.765132" y="0.758329694" width="17.9305345" height="17.8285787"></rect>
                                <rect id="矩形-2488" stroke="#FFFFFF" stroke-width="1.51665939" x="158.268534" y="2.30254738" width="16.571242" height="16.2813943"></rect>
                                <rect id="矩形-2474" x="18.5306122" y="36.2891156" width="17.825549" height="17.8112371"></rect>
                                <rect id="矩形-2481" x="0" y="122.765306" width="17.8191126" height="18.0680272"></rect>
                            </g>
                            <rect id="矩形-2492" stroke="#FFFFFF" stroke-width="1.51665939" x="193.013432" y="72.5644521" width="16.6454464" height="16.3038386"></rect>
                            <rect id="矩形-2493" stroke="#FFFFFF" stroke-width="1.51665939" x="209.999826" y="72.5644521" width="16.241844" height="16.3038386"></rect>
                            <rect id="矩形-2494" stroke="#FFFFFF" stroke-width="1.51665939" x="175.254928" y="72.5644521" width="16.5068963" height="16.3038386"></rect>
                            <rect id="矩形-2495" stroke="#FFFFFF" stroke-width="1.51665939" x="175.254928" y="90.3229555" width="16.5068963" height="16.314323"></rect>
                            <rect id="矩形-2517" stroke="#FFFFFF" stroke-width="1.51665939" x="158.268534" y="90.3229555" width="16.4413778" height="16.314323"></rect>
                            <rect id="矩形-2496" stroke="#FFFFFF" stroke-width="1.51665939" x="175.254928" y="107.30935" width="16.5068963" height="16.3283102"></rect>
                            <rect id="矩形-2518" stroke="#FFFFFF" stroke-width="1.51665939" x="158.268534" y="107.30935" width="16.4413778" height="16.3283102"></rect>
                            <rect id="矩形-2497" stroke="#FFFFFF" stroke-width="1.51665939" x="175.254928" y="125.067854" width="16.5068963" height="16.3501643"></rect>
                            <rect id="矩形-2519" stroke="#FFFFFF" stroke-width="1.51665939" x="158.268534" y="125.067854" width="16.4413778" height="16.3501643"></rect>
                            <rect id="矩形-2498" stroke="#FFFFFF" stroke-width="1.51665939" x="175.254928" y="141.282139" width="16.5068963" height="16.3826603"></rect>
                            <rect id="矩形-2499" stroke="#FFFFFF" stroke-width="1.51665939" x="158.268534" y="141.282139" width="16.4413778" height="16.3826603"></rect>
                            <rect id="矩形-2500" stroke="#FFFFFF" stroke-width="1.51665939" x="158.268534" y="159.040643" width="16.4413778" height="16.4515705"></rect>
                            <rect id="矩形-2508" stroke="#FFFFFF" stroke-width="1.51665939" x="193.013432" y="90.3229555" width="16.6454464" height="14.7638028"></rect>
                            <rect id="矩形-2509" stroke="#FFFFFF" stroke-width="1.51665939" x="193.013432" y="107.30935" width="16.6454464" height="16.3283102"></rect>
                            <rect id="矩形-2510" stroke="#FFFFFF" stroke-width="1.51665939" x="193.013432" y="125.067854" width="16.6454464" height="16.3501643"></rect>
                            <rect id="矩形-2511" stroke="#FFFFFF" stroke-width="1.51665939" x="158.268534" y="72.5644521" width="16.4413778" height="16.3038386"></rect>
                            <rect id="矩形-2512" stroke="#FFFFFF" stroke-width="1.51665939" x="140.51003" y="54.8059487" width="16.4004021" height="16.2960041"></rect>
                            <rect id="矩形-2467" stroke="#FFFFFF" stroke-width="1.51665939" x="70.2481256" y="0.758329694" width="16.3293243" height="14.7333406"></rect>
                            <rect id="矩形-2468" stroke="#FFFFFF" stroke-width="1.51665939" x="87.2345202" y="18.5168331" width="17.8927066" height="16.2848883"></rect>
                            <rect id="矩形-2469" stroke="#FFFFFF" stroke-width="1.51665939" x="70.2481256" y="37.0474453" width="16.3293243" height="14.7415288"></rect>
                            <rect id="矩形-2471" stroke="#FFFFFF" stroke-width="1.51665939" x="17.7447243" y="37.0474453" width="16.3073735" height="14.7415288"></rect>
                            <rect id="矩形-2472" stroke="#FFFFFF" stroke-width="1.51665939" x="35.5032277" y="37.0474453" width="16.3134509" height="16.2899276"></rect>
                            <rect id="矩形-2475" stroke="#FFFFFF" stroke-width="1.51665939" x="35.5032277" y="90.3229555" width="16.3134509" height="16.314323"></rect>
                            <rect id="矩形-2514" stroke="#FFFFFF" stroke-width="1.51665939" x="52.4896222" y="90.3229555" width="16.3204215" height="16.314323"></rect>
                            <rect id="矩形-2476" stroke="#FFFFFF" stroke-width="1.51665939" x="35.5032277" y="107.30935" width="16.3134509" height="16.3283102"></rect>
                            <rect id="矩形-2515" stroke="#FFFFFF" stroke-width="1.51665939" x="52.4896222" y="107.30935" width="16.3204215" height="16.3283102"></rect>
                            <rect id="矩形-2477" stroke="#FFFFFF" stroke-width="1.51665939" x="35.5032277" y="125.067854" width="16.3134509" height="16.3501643"></rect>
                            <rect id="矩形-2516" stroke="#FFFFFF" stroke-width="1.51665939" x="52.4896222" y="125.067854" width="16.3204215" height="16.3501643"></rect>
                            <rect id="矩形-2478" stroke="#FFFFFF" stroke-width="1.51665939" x="35.5032277" y="141.282139" width="16.3134509" height="16.3826603"></rect>
                            <rect id="矩形-2479" stroke="#FFFFFF" stroke-width="1.51665939" x="17.7447243" y="141.282139" width="16.3073735" height="16.3826603"></rect>
                            <rect id="矩形-2480" stroke="#FFFFFF" stroke-width="1.51665939" x="0.758329694" y="141.282139" width="16.3024532" height="16.3826603"></rect>
                            <rect id="矩形-2482" stroke="#FFFFFF" stroke-width="1.51665939" x="17.7447243" y="177.571255" width="16.3073735" height="16.6704154"></rect>
                            <rect id="矩形-2483" stroke="#FFFFFF" stroke-width="1.51665939" x="52.4896222" y="141.282139" width="16.3204215" height="16.3826603"></rect>
                            <rect id="矩形-2507" stroke="#FFFFFF" stroke-width="1.51665939" x="52.4896222" y="72.5644521" width="16.3204215" height="16.3038386"></rect>
                            <rect id="矩形-2470" stroke="#FFFFFF" stroke-width="1.51665939" x="87.2345202" y="54.8059487" width="17.8927066" height="17.8449314"></rect>
                            <rect id="矩形-2473" stroke="#FFFFFF" stroke-width="1.51665939" x="0.758329694" y="72.5644521" width="16.3024532" height="16.3038386"></rect>
                            <rect id="矩形-2502" stroke="#FFFFFF" stroke-width="1.51665939" x="70.2481256" y="141.282139" width="16.3293243" height="16.3826603"></rect>
                            <rect id="矩形-2520" stroke="#FFFFFF" stroke-width="1.51665939" x="70.2481256" y="159.040643" width="16.3293243" height="14.8891157"></rect>
                            <rect id="矩形-2503" stroke="#FFFFFF" stroke-width="1.51665939" x="87.2345202" y="141.282139" width="17.8927066" height="16.3826603"></rect>
                            <rect id="矩形-2504" stroke="#FFFFFF" stroke-width="1.51665939" x="105.765132" y="141.282139" width="16.3549555" height="16.3826603"></rect>
                            <rect id="矩形-2505" stroke="#FFFFFF" stroke-width="1.51665939" x="121.979418" y="141.282139" width="17.9279935" height="16.3826603"></rect>
                            <rect id="矩形-2506" stroke="#FFFFFF" stroke-width="1.51665939" x="140.51003" y="141.282139" width="16.4004021" height="16.3826603"></rect>
                        </g>
                    </g>
                    <g id="编组-9" transform="translate(47.000000, 1.000000)">
                        <rect id="矩形" x="4" y="6" width="121" height="121"></rect>
                        <g id="编组-9">
                            <rect id="矩形" x="0" y="0" width="133" height="133"></rect>
                            <g id="编组-13" transform="translate(22.357759, 20.064655)">
                                <path d="M40.3449438,76.4996955 L32.8227788,80.5243086 C31.288758,81.3450618 29.3799863,80.7845958 28.5332185,79.2647801 L24.3810408,71.8122707 C23.8622958,70.8812046 22.9126455,70.2709014 21.8502235,70.1858132 L13.3463055,69.5047437 C11.6120724,69.3658509 10.3093223,67.8623971 10.4186503,66.1260495 L10.9547469,57.6117629 C11.0217232,56.5480455 10.5527813,55.5212061 9.70501726,54.8752366 L2.91928014,49.7047194 C1.53544155,48.6502781 1.25232689,46.6811724 2.28303986,45.2795711 L7.33720391,38.4067331 C7.96863696,37.5480872 8.12928928,36.4307257 7.7653422,35.4289658 L4.85220953,27.4106035 C4.25812442,25.7753914 5.08453213,23.9658109 6.70938597,23.3439543 L14.6769561,20.2946424 C15.6723704,19.9136821 16.4116109,19.060553 16.6470315,18.0210543 L18.5314023,9.70062019 C18.9156885,8.0038056 20.5892399,6.92827938 22.292355,7.28360262 L30.643684,9.02595186 C31.6870425,9.24362918 32.7701677,8.92559495 33.5302115,8.17839093 L39.6138114,2.19756415 C40.8544607,0.977873679 42.8438152,0.977873679 44.0844645,2.19756415 L50.1680644,8.17839093 C50.9281082,8.92559495 52.0112333,9.24362918 53.0545918,9.02595186 L61.4059208,7.28360262 C63.1090359,6.92827938 64.7825874,8.0038056 65.1668736,9.70062019 L67.0512444,18.0210543 C67.2866649,19.060553 68.0259055,19.9136821 69.0213198,20.2946424 L76.9888899,23.3439543 C78.6137437,23.9658109 79.4401514,25.7753914 78.8460663,27.4106035 L75.9329337,35.4289658 C75.5689866,36.4307257 75.7296389,37.5480872 76.361072,38.4067331 L81.415236,45.2795711 C82.445949,46.6811724 82.1628343,48.6502781 80.7789957,49.7047194 L73.9932586,54.8752366 C73.1454945,55.5212061 72.6765527,56.5480455 72.7435289,57.6117629 L73.2796255,66.1260495 C73.3889536,67.8623971 72.0862034,69.3658509 70.3519703,69.5047437 L61.8480524,70.1858132 C60.7856304,70.2709014 59.8359801,70.8812046 59.3172351,71.8122707 L55.1650573,79.2647801 C54.3182895,80.7845958 52.4095179,81.3450618 50.8754971,80.5243086 L43.3533321,76.4996955 C42.4135637,75.9968876 41.2847122,75.9968876 40.3449438,76.4996955 Z" id="星形" fill="#C54747"></path>
                                <g id="编组" transform="translate(27.642241, 27.935345)" fill="#FFFFFF" fill-rule="nonzero">
                                    <path d="M14,0 C6.2680135,0 0,6.2680135 0,14 C0,21.7319865 6.2680135,28 14,28 C21.7319865,28 28,21.7319865 28,14 C28,10.2869691 26.5250042,6.72601436 23.8994949,4.10050506 C21.2739856,1.47499577 17.7130309,0 14,0 Z M14,22.4 C13.2268014,22.4 12.6,21.7731986 12.6,21 C12.6,20.2268014 13.2268014,19.6 14,19.6 C14.7731986,19.6 15.4,20.2268014 15.4,21 C15.4,21.7731986 14.7731986,22.4 14,22.4 Z M15.4,18.2 L12.6,18.2 L12.6,5.6 L15.4,5.6 L15.4,18.2 Z" id="形状"></path>
                                </g>
                                <g id="编组" transform="translate(1.336649, 57.882832)">
                                    <circle id="椭圆形" stroke="#FFFFFF" stroke-width="2.19834711" fill="#45A48A" cx="59.7217631" cy="19.493368" r="14.2892562"></circle>
                                    <circle id="椭圆形备份-2" stroke="#FFFFFF" stroke-width="1.64197531" fill="#C49002" cx="77.1728395" cy="11.4938272" r="10.6728395"></circle>
                                    <g id="编组-3">
                                        <circle id="椭圆形备份" stroke="#FFFFFF" stroke-width="2.19834711" fill="#000000" cx="15.3884298" cy="15.3884298" r="14.2892562"></circle>
                                        <polygon id="路径" fill="#FFFFFF" points="17.5680336 7.46660939 16.8176894 14.1634101 19.7610498 14.1634101 13.2941661 23.5420226 14.0445102 16.8452219 11.0972822 16.8452219"></polygon>
                                    </g>
                                    <g transform="translate(54.299419, 12.361155)" fill="#FFFFFF" fill-rule="nonzero" id="形状">
                                        <path d="M8.93964334,8.5382716 C10.3502801,8.5382716 11.4938272,9.71449142 11.4938272,11.1654321 L11.4938272,13.1358025 L9.5781893,13.1358025 L9.5781893,11.1654321 C9.57814659,10.832456 9.33585657,10.5521977 9.01435322,10.5132395 L8.93964334,10.508642 L2.55418382,10.508642 C2.23045709,10.5086859 1.95798371,10.7578985 1.92010769,11.0885877 L1.91563786,11.1654321 L1.91563786,13.1358025 L0,13.1358025 L0,11.1654321 C0,9.71449142 1.14354705,8.5382716 2.55418382,8.5382716 L8.93964334,8.5382716 Z M5.74691358,0 C7.86286873,0 9.5781893,1.76432973 9.5781893,3.94074074 C9.5781893,6.11715175 7.86286873,7.88148148 5.74691358,7.88148148 C3.63095843,7.88148148 1.91563786,6.11715175 1.91563786,3.94074074 C1.91563786,1.76432973 3.63095843,0 5.74691358,0 L5.74691358,0 Z M5.74691358,1.97037037 C4.688936,1.97037037 3.83127572,2.85253523 3.83127572,3.94074074 C3.83127572,5.02894624 4.688936,5.91111111 5.74691358,5.91111111 C6.80489116,5.91111111 7.66255144,5.02894624 7.66255144,3.94074074 C7.66255144,2.85253523 6.80489116,1.97037037 5.74691358,1.97037037 Z"></path>
                                    </g>
                                    <g id="编组备份" transform="translate(73.067901, 6.567901)" fill="#FFFFFF" fill-rule="nonzero">
                                        <path d="M6.38545953,6.4037037 C7.39305722,6.4037037 8.20987654,7.28586857 8.20987654,8.37407408 L8.20987654,9.85185185 L6.84156379,9.85185185 L6.84156379,8.37407408 C6.84153328,8.12434203 6.66846898,7.91414828 6.43882373,7.88492963 L6.38545953,7.88148148 L1.82441701,7.88148148 C1.59318364,7.88151442 1.39855979,8.06842387 1.37150549,8.31644074 L1.36831276,8.37407408 L1.36831276,9.85185185 L0,9.85185185 L0,8.37407408 C0,7.28586857 0.816819319,6.4037037 1.82441701,6.4037037 L6.38545953,6.4037037 Z M4.10493827,0 C5.61633481,0 6.84156379,1.32324729 6.84156379,2.95555555 C6.84156379,4.58786381 5.61633481,5.91111111 4.10493827,5.91111111 C2.59354173,5.91111111 1.36831276,4.58786381 1.36831276,2.95555555 C1.36831276,1.32324729 2.59354173,0 4.10493827,0 L4.10493827,0 Z M4.10493827,1.47777778 C3.34924,1.47777778 2.73662551,2.13940142 2.73662551,2.95555555 C2.73662551,3.77170968 3.34924,4.43333333 4.10493827,4.43333333 C4.86063654,4.43333333 5.47325103,3.77170968 5.47325103,2.95555555 C5.47325103,2.13940142 4.86063654,1.47777778 4.10493827,1.47777778 Z" id="形状"></path>
                                    </g>
                                </g>
                            </g>
                        </g>
                    </g>
                </g>
            </g>
        </g>
    </g>
</svg>