<?xml version="1.0" encoding="UTF-8"?>
<svg width="20px" height="20px" viewBox="0 0 20 20" version="1.1" xmlns="http://www.w3.org/2000/svg" xmlns:xlink="http://www.w3.org/1999/xlink">
    <title>编组</title>
    <g id="页面-1" stroke="none" stroke-width="1" fill="none" fill-rule="evenodd">
        <g id="CD入金页面-虚拟货币-第二步" transform="translate(-637.000000, -606.000000)" fill="#6A7073" fill-rule="nonzero">
            <g id="编组" transform="translate(637.000000, 606.000000)">
                <path d="M2.39999999,2.39999999 L2.39999999,6 L-2.35367281e-13,6 L-2.35367281e-13,4.84057239e-14 L6,4.84057239e-14 L6,2.39999999 L2.39999999,2.39999999 Z M2.39999999,17.6 L6,17.6 L6,20 L-2.35367281e-13,20 L-2.35367281e-13,14 L2.39999999,14 L2.39999999,17.6 L2.39999999,17.6 Z M17.6,2.39999999 L14,2.39999999 L14,4.84057239e-14 L20,4.84057239e-14 L20,6 L17.6,6 L17.6,2.39999999 Z M17.6,17.6 L17.6,14 L20,14 L20,20 L14,20 L14,17.6 L17.6,17.6 L17.6,17.6 Z M5.32907052e-15,9 L20,9 L20,11 L5.32907052e-15,11 L5.32907052e-15,9 Z" id="形状"></path>
            </g>
        </g>
    </g>
</svg>