<?xml version="1.0" encoding="UTF-8"?>
<svg width="121px" height="121px" viewBox="0 0 121 121" version="1.1" xmlns="http://www.w3.org/2000/svg" xmlns:xlink="http://www.w3.org/1999/xlink">
    <title>编组 9</title>
    <g id="跟单" stroke="none" stroke-width="1" fill="none" fill-rule="evenodd">
        <g id="申请成为带单员" transform="translate(-679.000000, -116.000000)">
            <g id="编组-9" transform="translate(679.000000, 116.000000)">
                <rect id="矩形" x="0" y="0" width="121" height="121"></rect>
                <g id="编组-9" transform="translate(12.000000, 10.000000)">
                    <rect id="矩形" x="0" y="0" width="100" height="100"></rect>
                    <g id="编组-13" transform="translate(6.357759, 4.064655)">
                        <path d="M40.3449438,76.4996955 L32.8227788,80.5243086 C31.288758,81.3450618 29.3799863,80.7845958 28.5332185,79.2647801 L24.3810408,71.8122707 C23.8622958,70.8812046 22.9126455,70.2709014 21.8502235,70.1858132 L13.3463055,69.5047437 C11.6120724,69.3658509 10.3093223,67.8623971 10.4186503,66.1260495 L10.9547469,57.6117629 C11.0217232,56.5480455 10.5527813,55.5212061 9.70501726,54.8752366 L2.91928014,49.7047194 C1.53544155,48.6502781 1.25232689,46.6811724 2.28303986,45.2795711 L7.33720391,38.4067331 C7.96863696,37.5480872 8.12928928,36.4307257 7.7653422,35.4289658 L4.85220953,27.4106035 C4.25812442,25.7753914 5.08453213,23.9658109 6.70938597,23.3439543 L14.6769561,20.2946424 C15.6723704,19.9136821 16.4116109,19.060553 16.6470315,18.0210543 L18.5314023,9.70062019 C18.9156885,8.0038056 20.5892399,6.92827938 22.292355,7.28360262 L30.643684,9.02595186 C31.6870425,9.24362918 32.7701677,8.92559495 33.5302115,8.17839093 L39.6138114,2.19756415 C40.8544607,0.977873679 42.8438152,0.977873679 44.0844645,2.19756415 L50.1680644,8.17839093 C50.9281082,8.92559495 52.0112333,9.24362918 53.0545918,9.02595186 L61.4059208,7.28360262 C63.1090359,6.92827938 64.7825874,8.0038056 65.1668736,9.70062019 L67.0512444,18.0210543 C67.2866649,19.060553 68.0259055,19.9136821 69.0213198,20.2946424 L76.9888899,23.3439543 C78.6137437,23.9658109 79.4401514,25.7753914 78.8460663,27.4106035 L75.9329337,35.4289658 C75.5689866,36.4307257 75.7296389,37.5480872 76.361072,38.4067331 L81.415236,45.2795711 C82.445949,46.6811724 82.1628343,48.6502781 80.7789957,49.7047194 L73.9932586,54.8752366 C73.1454945,55.5212061 72.6765527,56.5480455 72.7435289,57.6117629 L73.2796255,66.1260495 C73.3889536,67.8623971 72.0862034,69.3658509 70.3519703,69.5047437 L61.8480524,70.1858132 C60.7856304,70.2709014 59.8359801,70.8812046 59.3172351,71.8122707 L55.1650573,79.2647801 C54.3182895,80.7845958 52.4095179,81.3450618 50.8754971,80.5243086 L43.3533321,76.4996955 C42.4135637,75.9968876 41.2847122,75.9968876 40.3449438,76.4996955 Z" id="星形" fill="#183EFC"></path>
                        <g id="编组" transform="translate(1.336649, 57.882832)">
                            <circle id="椭圆形" stroke="#FFFFFF" stroke-width="2.19834711" fill="#45A48A" cx="59.7217631" cy="19.493368" r="14.2892562"></circle>
                            <circle id="椭圆形备份-2" stroke="#FFFFFF" stroke-width="1.64197531" fill="#C49002" cx="77.1728395" cy="11.4938272" r="10.6728395"></circle>
                            <g id="编组-3">
                                <circle id="椭圆形备份" stroke="#FFFFFF" stroke-width="2.19834711" fill="#000000" cx="15.3884298" cy="15.3884298" r="14.2892562"></circle>
                                <polygon id="路径" fill="#FFFFFF" points="17.5680336 7.46660939 16.8176894 14.1634101 19.7610498 14.1634101 13.2941661 23.5420226 14.0445102 16.8452219 11.0972822 16.8452219"></polygon>
                            </g>
                            <g transform="translate(54.299419, 12.361155)" fill="#FFFFFF" fill-rule="nonzero" id="形状">
                                <path d="M8.93964334,8.5382716 C10.3502801,8.5382716 11.4938272,9.71449142 11.4938272,11.1654321 L11.4938272,13.1358025 L9.5781893,13.1358025 L9.5781893,11.1654321 C9.57814659,10.832456 9.33585657,10.5521977 9.01435322,10.5132395 L8.93964334,10.508642 L2.55418382,10.508642 C2.23045709,10.5086859 1.95798371,10.7578985 1.92010769,11.0885877 L1.91563786,11.1654321 L1.91563786,13.1358025 L0,13.1358025 L0,11.1654321 C0,9.71449142 1.14354705,8.5382716 2.55418382,8.5382716 L8.93964334,8.5382716 Z M5.74691358,0 C7.86286873,0 9.5781893,1.76432973 9.5781893,3.94074074 C9.5781893,6.11715175 7.86286873,7.88148148 5.74691358,7.88148148 C3.63095843,7.88148148 1.91563786,6.11715175 1.91563786,3.94074074 C1.91563786,1.76432973 3.63095843,0 5.74691358,0 L5.74691358,0 Z M5.74691358,1.97037037 C4.688936,1.97037037 3.83127572,2.85253523 3.83127572,3.94074074 C3.83127572,5.02894624 4.688936,5.91111111 5.74691358,5.91111111 C6.80489116,5.91111111 7.66255144,5.02894624 7.66255144,3.94074074 C7.66255144,2.85253523 6.80489116,1.97037037 5.74691358,1.97037037 Z"></path>
                            </g>
                            <g id="编组备份" transform="translate(73.067901, 6.567901)" fill="#FFFFFF" fill-rule="nonzero">
                                <path d="M6.38545953,6.4037037 C7.39305722,6.4037037 8.20987654,7.28586857 8.20987654,8.37407408 L8.20987654,9.85185185 L6.84156379,9.85185185 L6.84156379,8.37407408 C6.84153328,8.12434203 6.66846898,7.91414828 6.43882373,7.88492963 L6.38545953,7.88148148 L1.82441701,7.88148148 C1.59318364,7.88151442 1.39855979,8.06842387 1.37150549,8.31644074 L1.36831276,8.37407408 L1.36831276,9.85185185 L0,9.85185185 L0,8.37407408 C0,7.28586857 0.816819319,6.4037037 1.82441701,6.4037037 L6.38545953,6.4037037 Z M4.10493827,0 C5.61633481,0 6.84156379,1.32324729 6.84156379,2.95555555 C6.84156379,4.58786381 5.61633481,5.91111111 4.10493827,5.91111111 C2.59354173,5.91111111 1.36831276,4.58786381 1.36831276,2.95555555 C1.36831276,1.32324729 2.59354173,0 4.10493827,0 L4.10493827,0 Z M4.10493827,1.47777778 C3.34924,1.47777778 2.73662551,2.13940142 2.73662551,2.95555555 C2.73662551,3.77170968 3.34924,4.43333333 4.10493827,4.43333333 C4.86063654,4.43333333 5.47325103,3.77170968 5.47325103,2.95555555 C5.47325103,2.13940142 4.86063654,1.47777778 4.10493827,1.47777778 Z" id="形状"></path>
                            </g>
                        </g>
                        <g id="编组" transform="translate(22.430171, 18.684605)" fill="#FFFFFF" fill-rule="nonzero">
                            <path d="M23.6932061,18.672568 L23.189848,16.2569126 L11.8602183,16.2569126 L11.8602183,36.7816039 L14.3790685,36.7816039 L14.3790685,28.3282464 L21.427018,28.3282464 L21.9321862,30.7440216 L30.7429344,30.7440216 L30.7429344,18.672568 L23.6932061,18.672568 Z M19.7862614,8.03770661 C19.101669,8.03770661 18.5485803,7.48511428 18.5485803,6.80113636 L18.5485803,1.23657025 C18.5485803,0.55259233 19.101669,0 19.7862614,0 C20.4708537,0 21.0239425,0.55259233 21.0239425,1.23657025 L21.0239425,6.80113636 C21.0239425,7.48511428 20.4708537,8.03770661 19.7862614,8.03770661 Z M10.8130735,11.4421391 C10.2213072,11.7821959 9.46322755,11.5812532 9.12286525,10.9900181 L6.33808279,6.17125839 C5.99772049,5.58002324 6.19884367,4.82262397 6.79060994,4.48256715 C7.38237621,4.14251033 8.14045588,4.343453 8.48081818,4.93468815 L11.2656006,9.75344783 C11.6059629,10.344683 11.4048398,11.098218 10.8130735,11.4421391 Z M28.7594493,11.4421391 C29.3512156,11.7821959 30.1092952,11.5812532 30.4496575,10.9900181 L33.23444,6.17125839 C33.5748023,5.58002324 33.3736791,4.82262397 32.7819128,4.48256715 C32.1901466,4.14251033 31.4320669,4.343453 31.0917046,4.93468815 L28.3069221,9.75344783 C27.9665598,10.344683 28.167683,11.098218 28.7594493,11.4421391 Z M7.8155646,17.1921907 C7.63764794,17.852983 6.96079109,18.2432754 6.29940526,18.0655185 L0.919360271,16.6280056 C0.257974438,16.4502486 -0.132668656,15.7739992 0.0413802476,15.113207 C0.219296904,14.4524148 0.896153751,14.0621223 1.55753958,14.2398793 L6.93758457,15.6812565 C7.5989704,15.8551491 7.9896135,16.5313985 7.8155646,17.1921907 L7.8155646,17.1921907 Z M31.7569582,17.1921907 C31.9348748,17.852983 32.6117317,18.2432754 33.2731175,18.0655185 L38.6531625,16.6241413 C39.3145483,16.4463843 39.7051914,15.7701349 39.5272748,15.1093427 C39.3493581,14.4485505 38.6725013,14.058258 38.0111154,14.236015 L32.6310705,15.6773922 C31.9735524,15.8551491 31.5829093,16.5313985 31.7569582,17.1921907 Z" id="形状"></path>
                        </g>
                    </g>
                </g>
            </g>
        </g>
    </g>
</svg>