<?xml version="1.0" encoding="UTF-8"?>
<svg width="20px" height="20px" viewBox="0 0 20 20" version="1.1" xmlns="http://www.w3.org/2000/svg" xmlns:xlink="http://www.w3.org/1999/xlink">
    <title>编组 8</title>
    <g id="新官网" stroke="none" stroke-width="1" fill="none" fill-rule="evenodd">
        <g id="尾部" transform="translate(-365.000000, -158.000000)">
            <g id="编组-8" transform="translate(365.000000, 158.000000)">
                <rect id="矩形" x="0" y="0" width="20" height="20"></rect>
                <g id="编组" transform="translate(1.500000, 3.500000)" fill="#282828" fill-rule="nonzero">
                    <path d="M14.346937,1.11284671 C14.3422338,1.1035326 14.3344395,1.09623407 14.3249503,1.09225843 C13.2278236,0.577805314 12.0700404,0.210959964 10.8805748,0.000902866516 C10.8584102,-0.00330845387 10.8361014,0.00748082725 10.8252338,0.0276676367 C10.6675799,0.32010627 10.5244651,0.620488922 10.3964352,0.927669799 C9.11425621,0.728752195 7.8100445,0.728752195 6.52786554,0.927669799 C6.39898804,0.61970891 6.25357976,0.319251372 6.09230395,0.0276676367 C6.08098378,0.00796375365 6.05901902,-0.00265363459 6.03693425,0.000902866516 C4.84734291,0.210518972 3.68948451,0.577391902 2.59250115,1.09228784 C2.58311053,1.09635653 2.57518693,1.10330354 2.56982374,1.11217024 C0.37607257,4.46035476 -0.22487867,7.72621554 0.0699275986,10.9516351 C0.0716032285,10.9676067 0.0795476238,10.9822001 0.0919430999,10.9920763 C1.36934408,11.9587119 2.79813253,12.6965523 4.31733653,13.174111 C4.33924758,13.1808284 4.36293431,13.172896 4.37670644,13.1542286 C4.70299851,12.7004863 4.99211779,12.2200134 5.24112424,11.7176957 C5.24804494,11.7037532 5.24879818,11.6874507 5.24319379,11.6729037 C5.2375894,11.6583567 5.22616296,11.6469553 5.21179901,11.6415779 C4.75587903,11.4632932 4.31449525,11.2483753 3.89178984,10.9988411 C3.87619613,10.9894723 3.8661975,10.9727763 3.86512887,10.9543219 C3.86406024,10.9358674 3.8720622,10.9180828 3.88646583,10.9068997 C3.97541327,10.8389967 4.0628174,10.7690074 4.14860858,10.6969874 C4.16395661,10.6840682 4.18514123,10.681151 4.2032876,10.689458 C6.97260744,11.9811375 9.97077337,11.9811375 12.7073146,10.689458 C12.7255162,10.6806153 12.7470741,10.6832835 12.7626843,10.6963109 C12.848573,10.7687116 12.9362013,10.8389294 13.0254889,10.9068997 C13.0399696,10.917968 13.048098,10.9356859 13.0471622,10.9541417 C13.0462263,10.9725975 13.0363494,10.9893617 13.0208268,10.9988411 C12.5990826,11.2504744 12.1572987,11.4652577 11.7001845,11.6409014 C11.6858276,11.6464851 11.6744798,11.6580579 11.6689856,11.6727188 C11.6634915,11.6873798 11.6643719,11.703739 11.6714061,11.7176957 C11.9245815,12.2172199 12.213275,12.6970876 12.535162,13.1534345 C12.5485602,13.1726322 12.572469,13.1809233 12.5945319,13.1740227 C14.1164583,12.6980832 15.5477439,11.9601742 16.8267458,10.9920763 C16.8393443,10.9826794 16.8473674,10.9681878 16.8487613,10.9523115 C17.2017,7.2233908 16.2578825,3.98429479 14.346937,1.11284671 L14.346937,1.11284671 Z M5.6546991,8.98768916 C4.82093033,8.98768916 4.13393158,8.20571669 4.13393158,7.24536145 C4.13393158,6.2850062 4.80760592,5.50297491 5.6546991,5.50297491 C6.50841131,5.50297491 7.18876225,6.29180033 7.17543784,7.24530262 C7.17543784,8.20571669 6.50173472,8.98768916 5.6546991,8.98768916 L5.6546991,8.98768916 Z M11.2774293,8.98768916 C10.4436894,8.98768916 9.75669061,8.20571669 9.75669061,7.24536145 C9.75669061,6.2850062 10.430365,5.50297491 11.2774293,5.50297491 C12.1311991,5.50297491 12.8115213,6.29180033 12.7981969,7.24530262 C12.7981969,8.20571669 12.1311991,8.98768916 11.2774293,8.98768916 Z" id="形状"></path>
                </g>
            </g>
        </g>
    </g>
</svg>