<?xml version="1.0" encoding="UTF-8"?>
<svg width="28px" height="28px" viewBox="0 0 28 28" version="1.1" xmlns="http://www.w3.org/2000/svg" xmlns:xlink="http://www.w3.org/1999/xlink">
    <title>编组 13</title>
    <g id="PC" stroke="none" stroke-width="1" fill="none" fill-rule="evenodd">
        <g id="登录窗口" transform="translate(-1051.000000, -871.000000)">
            <g id="编组-13" transform="translate(1051.000000, 871.000000)">
                <rect id="矩形备份-5" x="0" y="0" width="28" height="28"></rect>
                <path d="M23.6140625,9.03125 C23.40625,8.21875 22.753125,7.609375 21.921875,7.37723214 C20.4375,7 14.5,7 14.5,7 C14.5,7 8.5625,7 7.078125,7.37723214 C6.246875,7.58035714 5.6234375,8.21875 5.3859375,9.03125 C5,10.4821429 5,13.5 5,13.5 C5,13.5 5,16.5178571 5.3859375,17.96875 C5.59375,18.78125 6.246875,19.390625 7.078125,19.6227679 C8.5625,20 14.5,20 14.5,20 C14.5,20 20.4375,20 21.921875,19.6227679 C22.753125,19.4196429 23.3765625,18.78125 23.6140625,17.96875 C24,16.5178571 24,13.5 24,13.5 C24,13.5 24,10.4821429 23.6140625,9.03125 Z M12.6,16.2857143 L12.6,10.7142857 L17.528125,13.5 L12.6,16.2857143 Z" id="形状" fill="#000000" fill-rule="nonzero"></path>
            </g>
        </g>
    </g>
</svg>