<?xml version="1.0" encoding="UTF-8"?>
<svg width="20px" height="20px" viewBox="0 0 20 20" version="1.1" xmlns="http://www.w3.org/2000/svg" xmlns:xlink="http://www.w3.org/1999/xlink">
    <title>编组 3</title>
    <g id="新官网" stroke="none" stroke-width="1" fill="none" fill-rule="evenodd">
        <g id="尾部" transform="translate(-473.000000, -158.000000)">
            <g id="编组-4" transform="translate(473.000000, 158.000000)">
                <rect id="矩形备份-3" x="0" y="0" width="20" height="20"></rect>
                <g id="编组" transform="translate(2.000000, 2.000000)" fill="#282828" fill-rule="nonzero">
                    <path d="M7.99078341,0 C12.404193,0 15.9815668,3.5956579 15.9815668,8.03162452 C15.9815668,11.9937253 13.1268594,15.2861894 9.37219009,15.9437786 L9.37219009,10.1098074 L11.353405,10.1098074 L11.6580536,7.7881659 L9.37169067,7.7881659 L9.37169067,6.3058292 C9.37169067,5.63920437 9.55148329,5.176382 10.5108767,5.176382 L11.7364631,5.176382 L11.7369626,3.10572881 C11.5257062,3.07460626 10.7995438,3.0118592 9.95651613,3.0118592 C8.19354954,3.0118592 6.9839447,4.0941206 6.9839447,6.07843383 L6.9839447,7.7881659 L4.99423963,7.7881659 L4.99423963,10.1098074 L6.98444412,10.1098074 L6.98444412,16 C3.04648618,15.5030432 0,12.1247412 0,8.03162452 C0,3.5956579 3.57737385,0 7.99078341,0 Z" id="路径"></path>
                </g>
            </g>
        </g>
    </g>
</svg>