<?xml version="1.0" encoding="UTF-8"?>
<svg width="20px" height="20px" viewBox="0 0 20 20" version="1.1" xmlns="http://www.w3.org/2000/svg" xmlns:xlink="http://www.w3.org/1999/xlink">
    <title>编组 6</title>
    <g id="新官网" stroke="none" stroke-width="1" fill="none" fill-rule="evenodd">
        <g id="尾部" transform="translate(-401.000000, -158.000000)">
            <g id="编组-7" transform="translate(401.000000, 158.000000)">
                <rect id="矩形备份" x="0" y="0" width="20" height="20"></rect>
                <g id="编组" transform="translate(1.543779, 3.882353)" fill="#282828" fill-rule="nonzero">
                    <path d="M6.01226705,12.3793104 L6.26054402,8.69401936 L13.0704263,2.66512724 C13.3719055,2.3950468 13.0083571,2.26436272 12.6093406,2.49959406 L4.20339206,7.71824492 L0.567908012,6.58564958 C-0.212391011,6.36784277 -0.221258052,5.8363942 0.745248691,5.45305423 L14.9059024,0.0862947693 C15.5531959,-0.201210202 16.1738883,0.243115663 15.9256114,1.2188901 L13.513778,12.3793104 C13.3453044,13.1721271 12.8576175,13.3637971 12.1837229,12.9978817 L8.51277072,10.3319265 L6.74823089,12.0133949 C6.54428911,12.2137772 6.37581545,12.3793104 6.01226705,12.3793104 Z" id="路径"></path>
                </g>
            </g>
        </g>
    </g>
</svg>