<?xml version="1.0" encoding="UTF-8"?>
<svg width="171px" height="48px" viewBox="0 0 171 48" version="1.1" xmlns="http://www.w3.org/2000/svg" xmlns:xlink="http://www.w3.org/1999/xlink">
    <title>logo</title>
    <g id="页面-1" stroke="none" stroke-width="1" fill="none" fill-rule="evenodd">
        <g id="个人中心-账户" transform="translate(-18.000000, -10.000000)">
            <g id="logo" transform="translate(18.000000, 10.000000)">
                <rect id="矩形" x="0" y="0" width="171" height="48"></rect>
                <g id="编组" transform="translate(2.758065, 4.615385)">
                    <path d="M104.654359,6.75229328 L104.654359,15.3844541 C104.654359,17.4059781 105.984119,18.4361133 107.918034,18.4361133 L107.814099,18.4350997 C109.691264,18.3984722 110.97329,17.369364 110.97329,15.3844541 L110.97329,6.75229328 L113.652365,6.75229328 L113.652365,15.7889656 C113.652365,19.408904 110.992331,21.1065089 107.732259,21.1065089 L107.89462,21.1042959 C107.868218,21.1065089 107.841087,21.1063909 107.813999,21.1061549 L107.732259,21.1065089 C104.546834,21.0490202 101.975285,19.3481867 101.975285,15.7889656 L101.975285,6.75229328 L104.654359,6.75229328 Z M46.5417068,6.55029586 C50.1434819,6.55029586 52.3779307,8.22826931 52.3779307,11.4023669 L49.6612897,11.4023669 C49.6612897,9.78483766 48.3922545,8.75470248 46.5607474,8.75470248 C45.2304733,8.75470248 43.7602245,9.17832878 43.7602245,10.3913465 C43.7602245,13.4047761 52.3779307,11.8487243 52.3779307,16.9828685 C52.3779307,19.4698648 50.1059151,21.1065089 46.841726,21.1065089 C43.2775176,21.1065089 40.9216202,19.5917865 40.9216202,16.235323 L43.6804595,16.235323 C43.6804595,17.8714505 44.8280461,18.8824708 46.7810017,18.8824708 C48.4720194,18.8824708 49.6612897,18.1349254 49.6612897,16.9828685 C49.6612897,13.6450032 41.1233484,15.5063758 41.1233484,10.3531168 C41.1233484,8.16730845 43.2965583,6.55029586 46.5417068,6.55029586 Z M118.207717,6.75229328 L121.429708,11.6043643 L121.509473,11.6043643 L124.469526,6.75229328 L127.349814,6.75229328 L122.919512,13.6868492 L122.919512,13.7292118 L127.790323,20.9039948 L124.830784,20.9039948 L121.368984,15.647929 L121.285617,15.647929 L117.88454,20.9039948 L114.82208,20.9039948 L119.856537,13.5876586 L119.856537,13.5458126 L115.285746,6.75229328 L118.207717,6.75229328 Z M100.444312,18.2335993 L100.444312,20.9039948 L90.1963123,20.9039948 L90.1963123,18.2335993 L100.444312,18.2335993 Z M88.5052945,18.2335993 L88.5052945,20.9039948 L78.2536925,20.9039948 L78.2536925,18.2335993 L88.5052945,18.2335993 Z M75.6775408,18.2335993 L75.6775408,20.9039948 L65.2473681,20.9039948 L65.2473681,18.2335993 L75.6775408,18.2335993 Z M59.6694798,11.1998528 L59.6694798,20.9039948 L56.9487218,20.9039948 L56.9487218,11.1998528 L59.6694798,11.1998528 Z M92.9361109,6.75229328 L92.9361109,16.6775476 L90.1963123,16.6775476 L90.1963123,6.75229328 L92.9361109,6.75229328 Z M80.9934912,6.75229328 L80.9934912,16.6775476 L78.2536925,16.6775476 L78.2536925,6.75229328 L80.9934912,6.75229328 Z M75.6775408,12.5771549 L75.6775408,15.0832661 L65.2473681,15.0832661 L65.2473681,12.5771549 L75.6775408,12.5771549 Z M75.6775408,6.75229328 L75.6775408,9.40357398 L65.2473681,9.40357398 L65.2473681,6.75229328 L75.6775408,6.75229328 Z M63.8990826,6.75229328 L63.8990826,9.40357398 L52.7011076,9.40357398 L52.7011076,6.75229328 L63.8990826,6.75229328 Z" id="形状结合" fill="#fff"></path>
                    <g id="编组-2" transform="translate(-0.000000, 0.000000)">
                        <path d="M20.8198701,32.756516 C21.2529949,33.194392 21.9528034,33.1924672 22.383091,32.7517042 C22.8133787,32.3114223 22.8110144,31.5992725 22.3783626,31.1609154 C21.9452379,30.7230394 21.2454294,30.7254453 20.8151417,31.1657272 C20.8151417,31.1657272 20.8151417,31.1662084 20.8151417,31.1662084 C20.3848541,31.6064902 20.3872183,32.3186401 20.8198701,32.756516 M22.3414808,30.1076072 C22.7528547,29.6865727 22.7509633,29.0056996 22.3372252,28.587071 C21.9234871,28.1679612 21.2544134,28.1698859 20.8425666,28.5914016 C20.4316656,29.011955 20.4330841,29.6923468 20.8463494,30.1114567 C21.2600875,30.5305665 21.929634,30.5291229 22.3414808,30.1080884 C22.3414808,30.1076072 22.3414808,30.1076072 22.3414808,30.1076072 M20.8709372,27.4697656 C21.2671802,27.8715528 21.9083561,27.8696281 22.3027076,27.4663973 C22.697532,27.0626853 22.6956406,26.4102021 22.2993977,26.008896 C21.9026819,25.6071087 21.261506,25.6090334 20.8671545,26.0127454 C20.8671545,26.0127454 20.8666817,26.0127454 20.8666817,26.0127454 C20.472803,26.4164574 20.4746943,27.0684595 20.8709372,27.4697656 M20.8955251,24.8271121 C21.2742728,25.2106145 21.8866053,25.2091709 22.2629887,24.8237439 C22.6398451,24.4383168 22.6384265,23.8156668 22.2596788,23.4321645 C21.881404,23.0486622 21.2690715,23.0501057 20.8922152,23.4355328 C20.8922152,23.4355328 20.8922152,23.4355328 20.8922152,23.436014 C20.5158317,23.821441 20.5177231,24.4436098 20.8955251,24.8271121 M21.0567648,22.0463594 C21.3423623,22.3350688 21.8038576,22.333144 22.0875638,22.0425099 C22.3712699,21.7518758 22.3693785,21.2817606 22.083781,20.9935324 C21.7981835,20.704823 21.337161,20.7062665 21.0534549,20.9964195 C20.7697487,21.2875348 20.7711673,21.7571688 21.0567648,22.0463594 C21.0567648,22.0463594 21.0567648,22.0463594 21.0567648,22.0463594 M21.0879725,19.3969694 C21.3518192,19.6635444 21.7783241,19.6621008 22.0407523,19.3936011 C22.3027076,19.1251013 22.3012891,18.6910749 22.0374424,18.4240187 C21.7740685,18.1574436 21.3480364,18.158406 21.0856082,18.4264246 C20.82318,18.6954055 20.8241257,19.129432 21.0879725,19.3969694 M21.1149245,16.7523912 C21.3603304,17.0006813 21.7570461,16.9992377 22.0005606,16.7495041 C22.2445478,16.4997704 22.2431293,16.0960585 21.9977235,15.8477684 C21.7523177,15.5999595 21.3556019,15.601403 21.1120875,15.8506555 C20.8681002,16.0999079 20.868573,16.5026575 21.113506,16.7509476 C21.1139788,16.7514288 21.1144517,16.75191 21.1149245,16.7523912 M23.4791424,32.7031048 L24.9085486,31.2388669 C24.9024016,31.2316492 24.898146,31.2234691 24.8910533,31.2172137 C24.4929191,30.8139829 23.8489061,30.8163888 23.453136,31.2215443 C23.057366,31.6271811 23.0592573,32.2825514 23.4573916,32.685301 C23.4644843,32.6920376 23.4725226,32.6963682 23.4791424,32.7031048 M23.4781967,30.0469782 C23.8607272,30.4338488 24.4796794,30.4319241 24.8598457,30.0421664 C25.2400119,29.6528899 25.2381205,29.0235034 24.8551172,28.6361516 C24.4725868,28.249281 23.8541074,28.2512057 23.4734683,28.6409634 C23.0933021,29.0297587 23.0951934,29.6591453 23.477251,30.046497 C23.4777239,30.046497 23.4777239,30.0469782 23.4781967,30.0469782 M23.4994747,27.4081742 C23.8659285,27.779647 24.4588743,27.7786846 24.8243824,27.4057683 C25.1894176,27.0333332 25.188472,26.4299305 24.8220182,26.0579766 C24.4560373,25.6865038 23.8630914,25.6874662 23.4975833,26.0599013 C23.4971105,26.0608637 23.4961648,26.0613449 23.4956919,26.0623072 C23.1320752,26.4352235 23.1339666,27.0371827 23.4994747,27.4081742 M23.6493661,24.6375263 C23.9288167,24.9204615 24.381328,24.919018 24.6588872,24.6346392 C24.9369192,24.3497792 24.9355006,23.8897689 24.6560501,23.6068337 C24.3761267,23.3238985 23.9245611,23.325342 23.6465291,23.6097208 C23.3680242,23.8936184 23.3689699,24.3536287 23.6484204,24.6365639 C23.6484204,24.6370451 23.6488933,24.6375263 23.6493661,24.6375263 M23.6706441,21.9992035 C23.9340179,22.2662597 24.3609957,22.2652973 24.6238967,21.9967976 C24.8863249,21.7282978 24.8853792,21.2942713 24.6215325,21.026734 C24.3576858,20.7596778 23.930708,20.7606401 23.6682799,21.0291399 C23.6682799,21.0291399 23.667807,21.0296211 23.667807,21.0296211 C23.4053788,21.2981208 23.4067974,21.7321473 23.6706441,21.9992035 M23.6994875,19.3522194 C23.9434748,19.5990659 24.3378264,19.5971412 24.5799223,19.3488511 C24.822491,19.100561 24.8205997,18.699255 24.5766124,18.4528896 C24.3330979,18.2065242 23.9392192,18.2074866 23.6966505,18.4552955 C23.4540817,18.7026232 23.4545546,19.1039293 23.6975962,19.3507759 C23.698069,19.351257 23.6985418,19.3517382 23.6994875,19.3522194 M23.7245482,16.7086036 C23.9491489,16.9371652 24.3137113,16.9371652 24.538312,16.7086036 C24.7633856,16.480042 24.7633856,16.1095316 24.5387849,15.8804888 C24.3141842,15.6519272 23.9496218,15.651446 23.7250211,15.8800076 C23.7245482,15.8804888 23.7245482,15.8804888 23.7245482,15.8804888 C23.5004204,16.1090504 23.5004204,16.4795608 23.7245482,16.7086036 M27.3801019,28.6804204 C27.0249964,28.3214583 26.4514372,28.3233831 26.0986958,28.6842698 C25.7459545,29.0456378 25.7473731,29.6297931 26.1024786,29.9887552 C26.107207,29.993567 26.1138268,29.9974164 26.1185553,30.0027095 L27.3942872,28.6972617 C27.389086,28.6919687 27.3853032,28.6857134 27.3801019,28.6804204 M26.2443317,27.2262873 C26.5166896,27.5010424 26.9564341,27.4995989 27.2264278,27.222919 C27.4968943,26.945758 27.4954758,26.4982584 27.2231179,26.2230221 C26.9512328,25.948267 26.5119611,25.9497105 26.2414946,26.2259092 C25.9710281,26.5025891 25.9719738,26.9500886 26.2438588,27.2258061 C26.2443317,27.2258061 26.2443317,27.2258061 26.2443317,27.2262873 M26.2608812,24.5913328 C26.5199995,24.8535772 26.9389389,24.8521336 27.1966386,24.5884457 C27.4538655,24.3242766 27.452447,23.897949 27.1933287,23.6361858 C26.9342104,23.3739414 26.515271,23.375385 26.2575713,23.6390729 C26.0003444,23.9022797 26.0012901,24.328126 26.2594627,24.5903704 C26.2599355,24.5908516 26.2604083,24.5913328 26.2608812,24.5913328 M26.2779036,21.9573406 C26.5233094,22.2061119 26.920498,22.2051495 27.1644853,21.9554159 C27.4084726,21.7056823 27.4079997,21.3019703 27.1625939,21.053199 C26.9171881,20.8049089 26.5199995,20.8058713 26.2760122,21.0556049 C26.2760122,21.0556049 26.2760122,21.0556049 26.2755393,21.0556049 C26.0315521,21.3053385 26.0324977,21.7090505 26.2779036,21.9573406 C26.2779036,21.9573406 26.2779036,21.9573406 26.2779036,21.9573406 M26.306747,19.3113189 C26.5322934,19.5393993 26.8968558,19.538437 27.1209837,19.308913 C27.3451115,19.0798702 27.3441658,18.7088786 27.1186194,18.4807982 C26.8935459,18.2527177 26.5289835,18.2536801 26.3048556,18.4827229 C26.0807278,18.7122469 26.0816735,19.0827573 26.306747,19.3108377 C26.306747,19.3108377 26.306747,19.3113189 26.306747,19.3113189 M26.3313349,16.6686655 C26.5393861,16.8789421 26.875105,16.8779798 27.0817376,16.6667407 C27.2883703,16.4550205 27.2874246,16.113381 27.0793734,15.9031043 C26.8717951,15.6928277 26.5360762,15.69379 26.3294435,15.9050291 C26.1228109,16.1162681 26.1232837,16.4583888 26.3313349,16.6686655 C26.3313349,16.6686655 26.3313349,16.6686655 26.3313349,16.6686655 M28.8709777,24.5485076 C29.1092909,24.7905423 29.496077,24.7905423 29.7339173,24.5480264 C29.9722304,24.3050293 29.9722304,23.9119033 29.7339173,23.6693874 C29.4956041,23.4273527 29.1092909,23.4273527 28.8709777,23.6693874 C28.6326646,23.9123845 28.6326646,24.3055105 28.8709777,24.5485076 M28.8903643,21.9121095 C29.114965,22.1397087 29.4785817,22.1382652 29.7017639,21.9092224 C29.9249461,21.6806608 29.9240004,21.3106315 29.6989268,21.0835135 C29.4743261,20.8563954 29.1111823,20.8573578 28.8880001,21.0859194 C28.6643451,21.314481 28.6652908,21.6845102 28.8898915,21.9116283 C28.8898915,21.9121095 28.8898915,21.9121095 28.8903643,21.9121095 M28.9163707,19.2684937 C29.1220577,19.4773268 29.4554124,19.4773268 29.6610994,19.2680125 C29.8663135,19.0586982 29.8663135,18.7194646 29.6606265,18.5101503 C29.4549396,18.300836 29.1220577,18.300836 28.9163707,18.5101503 C28.7106838,18.7194646 28.7102109,19.0586982 28.9158979,19.2680125 C28.9158979,19.2680125 28.9163707,19.2680125 28.9163707,19.2684937 M28.9371758,16.6296897 C29.1277318,16.8221626 29.4360258,16.8207191 29.6251632,16.6268026 C29.8143007,16.4324049 29.8128821,16.1191552 29.6223262,15.9266823 C29.4317702,15.7342093 29.1244219,15.7351717 28.9352845,15.928607 C28.7452013,16.1220423 28.7456742,16.435292 28.9357573,16.6282461 C28.9362302,16.6287273 28.936703,16.6292085 28.9371758,16.6296897" id="Fill-7" fill="#183EFC"></path>
                        <path d="M19.7743184,27.5197123 C20.1937307,27.0904977 20.1923121,26.3966327 19.7705357,25.9693428 C19.3487592,25.542534 18.6664459,25.5439776 18.2470337,25.9731922 C17.8276214,26.4024069 17.8290399,27.096753 18.2508164,27.5235618 C18.2512893,27.5240429 18.2512893,27.5240429 18.2512893,27.5240429 C18.6730657,27.9508517 19.3549062,27.948927 19.7743184,27.5197123 C19.7743184,27.5197123 19.7743184,27.5197123 19.7743184,27.5197123 M18.2820241,24.8770589 C18.6825226,25.2822144 19.3298455,25.2807709 19.7284526,24.8732094 C20.1265869,24.465648 20.1246955,23.8064281 19.724197,23.4012726 C19.3236985,22.9961171 18.6768485,22.9975606 18.2782413,23.4046409 C17.8796342,23.8122023 17.8810527,24.470941 18.2815512,24.8765777 C18.2815512,24.8765777 18.2820241,24.8770589 18.2820241,24.8770589 M18.3141775,22.2262253 C18.6929252,22.6092465 19.3052576,22.6078029 19.6821139,22.2223759 C20.0584974,21.8369488 20.056606,21.2138177 19.6783312,20.8307965 C19.2995835,20.4472942 18.687251,20.4492189 18.3103947,20.834646 C18.3103947,20.834646 18.3103947,20.834646 18.3103947,20.834646 C17.9340112,21.220073 17.9354297,21.842723 18.3141775,22.2257441 C18.3141775,22.2257441 18.3141775,22.2262253 18.3141775,22.2262253 M18.4853468,19.4324806 C18.7652702,19.7154158 19.2173087,19.7139723 19.4953407,19.4295935 C19.7733727,19.1447336 19.7719542,18.6847232 19.4925037,18.401788 C19.2125803,18.1188528 18.7605418,18.1202964 18.4825098,18.4046751 C18.2044777,18.6885727 18.2054234,19.148583 18.4844011,19.4315182 C18.484874,19.4319994 18.4853468,19.4324806 18.4853468,19.4324806 M20.803226,33.7558355 C20.7441206,33.8169457 20.691635,33.8847924 20.6471877,33.9574509 C20.4755454,33.4921476 20.1180757,33.1225995 19.663673,32.9407126 C20.192785,32.5822318 20.3360566,31.8546841 19.9833153,31.316241 C19.630574,30.777798 18.9161073,30.6319997 18.3865225,30.9909618 C18.3226886,31.0342682 18.2631103,31.0843111 18.2087333,31.1401283 C18.1515193,31.1983513 18.100925,31.2623486 18.0569505,31.3316389 C17.883417,30.8764404 17.5302028,30.5160348 17.0833656,30.3375161 C17.6120047,29.9780729 17.7543307,29.2505252 17.4011165,28.7125633 C17.0474295,28.1746015 16.33249,28.0297656 15.8038509,28.3892088 C15.740017,28.4325152 15.6809116,28.4825582 15.6270074,28.537413 C15.5697933,28.5961172 15.5191991,28.6605957 15.4752246,28.7298859 C15.3007453,28.2746874 14.9470583,27.9142818 14.5002212,27.7357632 C15.029806,27.3777635 15.1735504,26.6502158 14.8217548,26.1112916 C14.4694863,25.5723674 13.7550197,25.4260879 13.2254349,25.7840876 C13.1606553,25.8283564 13.1001313,25.8783993 13.0452815,25.9346977 C12.9880674,25.9934019 12.9374731,26.0578803 12.8934987,26.1271706 C12.7180737,25.6724533 12.3653324,25.3125289 11.9189681,25.1335291 C12.4461887,24.774567 12.5880417,24.0484629 12.2357733,23.5119445 C12.1993643,23.4566086 12.1586998,23.4046409 12.1137796,23.3565226 L10.4947632,25.0132335 L10.2782009,25.2355397 C7.44775919,28.1317763 2.84604549,28.1447682 0,25.2648918 L10.3070443,35.6945192 C13.152617,38.5743955 17.7538578,38.5618848 20.5842995,35.6656482 C20.5842995,35.6656482 20.5847723,35.6656482 20.5847723,35.6656482 L20.8353794,35.4086969 L22.4283894,33.7774887 C22.4198782,33.7683463 22.4142041,33.7582414 22.4056929,33.749099 C21.96122,33.3011182 21.2443891,33.3040053 20.803226,33.7558355" id="Fill-9" fill="#183EFC"></path>
                        <path d="M14.6474646,23.33997 C14.2067744,22.8939139 13.4937263,22.8958387 13.0554003,23.3443006 C12.6170743,23.7927626 12.6189657,24.5179044 13.0596559,24.9644416 C13.5003461,25.4104976 14.2133942,25.4085729 14.6517202,24.9601109 C14.6517202,24.9601109 14.6517202,24.9601109 14.6517202,24.9596298 C15.0900462,24.511649 15.0886277,23.7869884 14.6484103,23.3409323 C14.6479375,23.3404512 14.6479375,23.3404512 14.6474646,23.33997 L14.6474646,23.33997 Z M14.5963975,22.3001349 C14.9987874,21.8867993 15.0049344,21.2227677 14.61011,20.8022143 L13.1244355,22.3227505 C13.540065,22.722613 14.193062,22.7125082 14.5963975,22.3001349 L14.5963975,22.3001349 Z M15.6371263,27.5710063 C16.0806535,28.0194683 16.7979572,28.0170624 17.2386475,27.5652322 C17.6793377,27.1134019 17.6765006,26.3839295 17.2329733,25.9354676 C16.7894461,25.4874868 16.0735609,25.4894115 15.6323978,25.9397982 C15.1912348,26.3906661 15.1926533,27.1206197 15.6357077,27.5695628 L15.6371263,27.5710063 Z M17.1923088,24.9177669 C17.611721,24.4885522 17.6103025,23.7946873 17.188526,23.3673974 C16.7667496,22.9405886 16.0844363,22.9425134 15.665024,23.3712468 C15.2451389,23.8004615 15.2470303,24.4948076 15.6688068,24.9216163 C15.6688068,24.9220975 15.6692796,24.9220975 15.6692796,24.9220975 C16.0905832,25.3489063 16.7724237,25.3474627 17.1918359,24.9182481 C17.1918359,24.9182481 17.1918359,24.9182481 17.1923088,24.9177669 L17.1923088,24.9177669 Z M15.7094713,22.2669333 C16.1061871,22.6687206 16.747363,22.6667959 17.1421874,22.2635651 C17.5370118,21.8598531 17.5351204,21.2068886 17.1384046,20.8055826 C16.7421617,20.4037953 16.100513,20.4052388 15.7056886,20.8089508 L15.7052157,20.8099132 C15.3108642,21.2126628 15.3122827,21.8641837 15.7080528,22.2654898 C15.7085256,22.265971 15.7089985,22.2664522 15.7094713,22.2669333 L15.7094713,22.2669333 Z M17.0778806,19.5968525 C17.4362961,19.2297104 17.4410245,18.6388185 17.088756,18.2659021 L15.770941,19.6160998 C16.1392861,19.9721747 16.719938,19.9635135 17.0778806,19.5968525 L17.0778806,19.5968525 Z M18.2240535,30.1684287 C18.6647437,30.6149659 19.3777918,30.6130411 19.8161178,30.1645792 C20.2549166,29.7161172 20.2530253,28.9909755 19.812335,28.5444382 C19.3716448,28.0983822 18.6590696,28.0998257 18.2202707,28.5482877 C18.2202707,28.5487689 18.2197979,28.5487689 18.2197979,28.5492501 C17.7819447,28.997712 17.7838361,29.7223726 18.2240535,30.1684287 L18.2240535,30.1684287 Z" id="Fill-11" fill="#183EFC"></path>
                        <path d="M12.0726422,5.08963783 C11.6395175,4.65128071 10.939709,4.65368662 10.5089485,5.09396847 C10.0786609,5.5347315 10.0805522,6.24736255 10.513677,6.68523849 C10.9463288,7.1235956 11.6466102,7.12167087 12.0773707,6.68090785 C12.0773707,6.68042666 12.0778435,6.68042666 12.0778435,6.67994548 C12.5076583,6.23918245 12.5052941,5.52751376 12.0726422,5.08963783 M10.5510316,7.73854664 C10.1396577,8.1595812 10.1415491,8.84045422 10.5552872,9.25908286 C10.9690253,9.67819268 11.638099,9.67626795 12.0499457,9.25475222 C12.4608468,8.83419884 12.4594283,8.15380701 12.046163,7.73469718 C11.6324249,7.31558736 10.9628784,7.31751209 10.5510316,7.73854664 M12.0225208,10.3763883 C11.625805,9.97460101 10.9846292,9.97652574 10.5902776,10.3797565 C10.1959261,10.7834685 10.1978174,11.4359518 10.5940604,11.8372579 C10.9907761,12.2390451 11.631952,12.2371204 12.0263036,11.8334084 C12.0263036,11.8334084 12.0263036,11.8334084 12.0267764,11.8334084 C12.4206551,11.4296964 12.4187637,10.7776943 12.0225208,10.3763883 M11.9969873,13.0190417 C11.6182395,12.6355394 11.0059071,12.6374641 10.6295236,13.0228912 C10.2526673,13.4083182 10.2545587,14.0309682 10.6333064,14.4144705 C11.0115812,14.7974917 11.6239137,14.7960481 12.0002972,14.4106211 C12.3771535,14.025194 12.3752621,13.4020629 11.9969873,13.0190417 M11.8362204,15.7997945 C11.5506229,15.5110851 11.0891276,15.5125286 10.8054214,15.8031628 C10.5217153,16.0937969 10.5231338,16.5634309 10.8087313,16.8521403 C11.0943289,17.1408497 11.5553514,17.1394061 11.8390575,16.8497344 C12.1232365,16.5591002 12.121818,16.0889851 11.8362204,15.7997945 C11.8362204,15.7997945 11.8362204,15.7997945 11.8362204,15.7997945 M11.8045399,18.4496657 C11.5406932,18.1830907 11.1141883,18.1845342 10.8517601,18.4530339 C10.5898048,18.7215337 10.5912233,19.1555602 10.85507,19.4226164 C11.1189167,19.6891914 11.5449488,19.6877478 11.807377,19.4197293 C12.0698052,19.1512295 12.0683866,18.7172031 11.8050128,18.4501469 C11.8045399,18.4501469 11.8045399,18.4496657 11.8045399,18.4496657 M11.7780607,21.0937627 C11.5326549,20.8454726 11.1359391,20.8469161 10.8924247,21.0961686 C10.6484374,21.3459022 10.6493831,21.7496142 10.8947889,21.9979043 C11.1401947,22.2457132 11.5364376,22.2447508 11.7804249,21.9954984 C12.0244122,21.7462459 12.0239393,21.3430151 11.7790064,21.094725 C11.7785335,21.0942438 11.7785335,21.0937627 11.7780607,21.0937627 M9.41336995,5.14304907 L7.98396381,6.60680576 C7.99011078,6.6140235 7.99483921,6.6222036 8.00145902,6.62894015 C8.39959332,7.03217096 9.04360627,7.02976505 9.43937634,6.62460951 C9.83514642,6.21897279 9.83325504,5.56360244 9.43512075,5.16085281 C9.4280281,5.15411626 9.4204626,5.14978562 9.41336995,5.14304907 M9.41478848,7.79917562 C9.03225802,7.41230501 8.41330578,7.41422974 8.03313954,7.80350626 C7.65297331,8.19326396 7.65486468,8.82265047 8.03739514,9.21000226 C8.42039843,9.59687286 9.03840499,9.59494813 9.41904407,9.20567162 C9.79921031,8.8163951 9.79779178,8.18700859 9.41526132,7.7996568 C9.41526132,7.7996568 9.41478848,7.79917562 9.41478848,7.79917562 M9.39303767,10.4403855 C9.0265839,10.0693939 8.43316521,10.0708375 8.06860281,10.444235 C7.70404041,10.8176325 7.70593179,11.4210351 8.0728584,11.7920267 C8.43931218,12.1630183 9.03225802,12.1615748 9.39682042,11.7886585 C9.76185566,11.4162233 9.76090998,10.8133018 9.39492905,10.4418291 C9.3944562,10.4413479 9.39351052,10.4408667 9.39303767,10.4403855 M9.2436191,13.2086276 C8.96416855,12.9256923 8.51165724,12.9271359 8.23362522,13.2115146 C7.9555932,13.4963746 7.95701173,13.9563849 8.23693513,14.2393201 C8.51638568,14.5222554 8.96842414,14.5208118 9.24645616,14.236433 C9.52448819,13.9520543 9.5235425,13.4915628 9.2436191,13.2086276 M9.22234114,15.8469504 C8.95849442,15.5798942 8.53198952,15.5808565 8.26908849,15.8498375 C8.0066603,16.1183372 8.00760599,16.5523637 8.27192555,16.8199011 C8.53577227,17.0869573 8.96227717,17.0859949 9.2251782,16.817014 C9.2251782,16.817014 9.2251782,16.817014 9.2251782,16.817014 C9.48713354,16.548033 9.48618786,16.1144877 9.22234114,15.8469504 M9.19349768,18.4944156 C8.9495104,18.2475691 8.55515885,18.2490126 8.31306294,18.4977839 C8.07049419,18.746074 8.07191272,19.1473801 8.31637285,19.3937454 C8.55988729,19.6401108 8.95376599,19.6391484 9.1958619,19.3913395 C9.4389035,19.1435306 9.43795781,18.7422245 9.19444337,18.495378 C9.19444337,18.4948968 9.19397053,18.4944156 9.19349768,18.4944156 M9.16701844,21.1375503 C8.9419449,20.9094698 8.5773825,20.9104322 8.35325465,21.1399562 C8.12912679,21.368999 8.13007248,21.7399906 8.35561886,21.968071 C8.58069241,22.1961514 8.94478196,22.1951891 9.16938266,21.9661463 C9.39303767,21.7366223 9.39209199,21.3661119 9.16701844,21.1375503 M5.51241043,9.16621466 C5.86751596,9.52517669 6.44154806,9.52373315 6.79428937,9.16236521 C7.14703068,8.80051608 7.14561215,8.21684189 6.79050662,7.85739868 C6.78530534,7.85258686 6.77915837,7.84921858 6.7739571,7.84392558 L5.49869797,9.1488921 C5.50389925,9.15418511 5.50720915,9.16044048 5.51241043,9.16621466 M6.64865355,10.6203477 C6.37629565,10.3455926 5.93655112,10.3470361 5.66608459,10.623716 C5.39609091,10.900877 5.39750944,11.3483766 5.6693945,11.6231317 C5.94127955,11.898368 6.38102408,11.8969245 6.65149061,11.6202446 C6.92195714,11.3435648 6.92101145,10.8965464 6.64912639,10.6208289 C6.64865355,10.6208289 6.64865355,10.6208289 6.64865355,10.6203477 M6.63210402,13.2543399 C6.3725129,12.9920955 5.95404633,12.993539 5.69634658,13.2577082 C5.43864683,13.5213961 5.44053821,13.9477236 5.69965649,14.2094868 C5.95877477,14.4717312 6.37771418,14.4702877 6.63541393,14.2065997 C6.89264083,13.9429118 6.89169515,13.5170654 6.63257687,13.2548211 C6.63257687,13.2548211 6.63210402,13.2543399 6.63210402,13.2543399 M6.61460881,15.8892944 C6.36920299,15.6410043 5.97248723,15.6419667 5.72849994,15.8917003 C5.48451266,16.141434 5.48593119,16.5451459 5.73133701,16.793436 C5.97674282,17.0412449 6.37298574,17.0402826 6.61697303,16.7905489 C6.61697303,16.7905489 6.61697303,16.7905489 6.61697303,16.7905489 C6.86096031,16.5417777 6.86048747,16.1385469 6.61602734,15.890738 C6.6155545,15.8902568 6.61508165,15.8897756 6.61460881,15.8892944 M6.58576535,18.5353161 C6.36021896,18.3072357 5.99565657,18.3081981 5.77152871,18.537722 C5.54740085,18.7667648 5.54834654,19.1377564 5.77389293,19.3658369 C5.99896647,19.5939173 6.36352887,19.5929549 6.58765673,19.3634309 C6.58765673,19.3634309 6.58765673,19.3634309 6.58812957,19.3634309 C6.81178458,19.1343882 6.81083889,18.7633966 6.58576535,18.5357973 C6.58576535,18.5357973 6.58576535,18.5353161 6.58576535,18.5353161 M6.56117749,21.1774884 C6.35312631,20.9672117 6.01740737,20.9681741 5.81077473,21.1798943 C5.60414208,21.3916145 5.60556061,21.733254 5.81313895,21.9435307 C6.02119012,22.1533262 6.35643622,22.1523638 6.56306886,21.941606 C6.77017435,21.7308481 6.7697015,21.3892086 6.56212317,21.1784508 C6.56212317,21.1779696 6.56165033,21.1774884 6.56117749,21.1774884 M4.02153463,13.2976463 C3.78227578,13.0560928 3.39596258,13.0575363 3.1585951,13.3005334 C2.92075478,13.5440117 2.92217331,13.9371376 3.16143216,14.1791723 C3.40021817,14.4207259 3.78653137,14.4197635 4.02389885,14.1767664 C4.26173917,13.9332882 4.26079348,13.539681 4.02153463,13.2976463 M4.00262089,15.9345255 C3.77754734,15.7074075 3.41440348,15.708851 3.19122131,15.9374126 C2.96803914,16.1664554 2.96945767,16.5364847 3.19405837,16.7636027 C3.41865907,16.9902396 3.78133009,16.9892773 4.00451226,16.7611968 C4.22864012,16.5326352 4.22816727,16.162606 4.00309373,15.9350067 C4.00309373,15.9345255 4.00309373,15.9345255 4.00262089,15.9345255 M3.97661449,18.5776602 C3.77092753,18.3683459 3.43709997,18.3683459 3.23141301,18.5776602 C3.02572605,18.7869745 3.02525321,19.1266892 3.23094017,19.3360036 C3.43662712,19.5453179 3.77045469,19.5457991 3.97614165,19.3364847 C3.97661449,19.3360036 3.97661449,19.3360036 3.97661449,19.3360036 C4.18230145,19.1266892 4.18230145,18.7874557 3.97661449,18.5776602 M3.95580937,21.2164642 C3.76525341,21.02351 3.4569594,21.0244724 3.26734912,21.2188701 C3.07773885,21.4127866 3.07868453,21.7265175 3.26971334,21.9194716 C3.4602693,22.1124257 3.76809047,22.1114633 3.95770075,21.9175468 C4.14731102,21.7236304 4.14683818,21.4098995 3.95628222,21.2169453 C3.95580937,21.2164642 3.95580937,21.2164642 3.95580937,21.2164642" id="Fill-13" fill="#00A29A"></path>
                        <path d="M13.1181939,10.3264415 C12.6987817,10.7556562 12.7002002,11.4495211 13.1219767,11.8768111 C13.5437532,12.3036198 14.2260664,12.3021763 14.6454787,11.8729616 C15.064891,11.4437469 15.0634724,10.7494008 14.641696,10.3225921 C14.6412231,10.3221109 14.6412231,10.3221109 14.6412231,10.3221109 C14.2194466,9.89530216 13.5376062,9.89770807 13.1181939,10.3264415 M14.6104883,12.9710197 C14.2099898,12.5658642 13.5626669,12.5677889 13.1640598,12.9758315 C12.7659255,13.383393 12.7678169,14.0421316 13.1687882,14.4472872 C13.5692867,14.8524427 14.2161367,14.850518 14.6147439,14.4434377 C15.0128782,14.0363574 15.0119325,13.3781 14.6119068,12.9724633 C14.611434,12.9719821 14.6109611,12.9715009 14.6104883,12.9710197 M14.5783349,15.6194473 C14.2000601,15.2364262 13.5877276,15.2378697 13.2108713,15.6228156 C12.8344878,16.0082427 12.8359063,16.6313738 13.2141812,17.0148762 C13.5929289,17.3978973 14.2052613,17.3964538 14.5821177,17.0110267 L14.5821177,17.0110267 C14.9585012,16.6255996 14.9566098,16.0029497 14.5783349,15.6194473 M14.4076384,18.4136732 C14.127715,18.130738 13.6756765,18.1321816 13.3976445,18.4165603 C13.1196125,18.7014203 13.121031,19.1614306 13.4004816,19.4443658 C13.680405,19.727301 14.1319706,19.7258575 14.4100026,19.4414787 C14.6885075,19.1575811 14.6875618,18.6975708 14.4081112,18.4146356 C14.4081112,18.4141544 14.4076384,18.4136732 14.4076384,18.4136732 M12.0892863,4.09031833 C12.1483918,4.02872699 12.2013502,3.9603991 12.2457975,3.8867782 C12.4164941,4.35208153 12.7744367,4.72211075 13.2293122,4.90303531 C12.7002002,5.26199734 12.5569286,5.98954505 12.9096699,6.5279881 C13.2624112,7.06643114 13.9768779,7.21222939 14.5059898,6.85326736 C14.5702966,6.80996095 14.6298749,6.75991799 14.683779,6.70458202 C14.7409931,6.64635895 14.7920602,6.58188052 14.8355618,6.51259026 C15.0095683,6.96778876 15.3627824,7.32819434 15.8096196,7.50671299 C15.7462586,7.54953822 15.6871531,7.5991 15.6332489,7.65395479 C15.1845204,8.11204038 15.1854661,8.85402356 15.636086,9.31114679 C16.0862331,9.76778883 16.8153579,9.76682647 17.2640864,9.30825969 C17.3217734,9.24955545 17.3733133,9.18459583 17.4172878,9.11434321 C17.5922399,9.57050407 17.9463997,9.93187201 18.3946554,10.1103907 C18.3308215,10.1536971 18.2712433,10.20374 18.2173391,10.259076 C17.7638821,10.7123498 17.7567894,11.4538518 18.2022081,11.9153056 C18.6471539,12.3772407 19.3758059,12.3839773 19.8297357,11.9311847 C19.8935696,11.8671874 19.949838,11.7964536 19.9975952,11.7189832 C20.1730201,12.1737006 20.5257614,12.533625 20.9721258,12.713106 C20.4449052,13.0715868 20.3025793,13.7967286 20.6548477,14.3337281 C20.6912567,14.3890641 20.7323941,14.4410318 20.7773142,14.4896312 L22.3958578,12.8329204 L22.6133658,12.6106141 C25.4433346,9.71533996 30.0445755,9.70186685 32.8910938,12.5817432 L22.5859409,2.15163466 C19.7408411,-0.728241687 15.1381817,-0.715730946 12.3082129,2.1805056 L12.0576058,2.43745697 L10.4645958,4.06866512 C10.4726341,4.07780759 10.4783083,4.08791242 10.4872923,4.0965737 C10.9312924,4.54455446 11.6481233,4.54214855 12.0892863,4.09031833" id="Fill-15" fill="#00A29A"></path>
                        <path d="M18.245426,14.5066169 C18.6861162,14.952673 19.3986915,14.9502671 19.8370175,14.5018051 C20.2748706,14.0533432 20.2729793,13.3282014 19.832289,12.8821453 C19.3915988,12.4365705 18.6790236,12.4384952 18.2411704,12.8869572 C17.8028444,13.3344567 17.8037901,14.0591174 18.2440075,14.5051734 C18.2444803,14.5056546 18.2449532,14.5061358 18.245426,14.5066169 L18.245426,14.5066169 Z M18.2960203,15.5459708 C17.8936304,15.9593064 17.8874834,16.6238193 18.2823078,17.0443726 L19.7684552,15.5233552 C19.3528257,15.1234927 18.6998287,15.1335975 18.2960203,15.5459708 L18.2960203,15.5459708 Z M17.2557644,10.2770241 C16.8117643,9.82856216 16.0944606,9.83144926 15.6537703,10.2832795 C15.213553,10.7351097 15.2159172,11.4650633 15.6599173,11.9130441 C16.1034446,12.3610249 16.8198026,12.3591001 17.2604928,11.9082323 C17.7016559,11.4578456 17.7002374,10.7283732 17.2576558,10.2789488 C17.2567101,10.2784677 17.2562372,10.2779865 17.2557644,10.2770241 L17.2557644,10.2770241 Z M15.700109,12.9278577 C15.2806968,13.3570723 15.2825881,14.0514184 15.7038918,14.4782272 C16.1256682,14.9050359 16.8079815,14.9035924 17.2273938,14.4743777 C17.6472789,14.0451631 17.6453875,13.3508169 17.223611,12.9240082 C17.223611,12.9240082 17.2231382,12.923527 17.2231382,12.923527 C16.8013617,12.4971995 16.1195213,12.4991242 15.700109,12.9278577 L15.700109,12.9278577 Z M17.1853107,15.5810971 C16.7890678,15.179791 16.1478919,15.1817158 15.7530675,15.5849466 C15.358716,15.9886586 15.3606073,16.6411418 15.7568502,17.0424479 C16.153566,17.443754 16.7947419,17.4423104 17.1890934,17.0385984 C17.1895663,17.0385984 17.1895663,17.0381173 17.1900391,17.0381173 C17.5839178,16.6353676 17.5824993,15.9838467 17.1872021,15.5830218 L17.1853107,15.5810971 Z M15.81501,18.2492532 C15.4565946,18.6163954 15.4518661,19.2077685 15.8041346,19.5806848 L17.1219497,18.2314495 C16.7540774,17.8753745 16.1734254,17.8830735 15.81501,18.2492532 L15.81501,18.2492532 Z M14.6674186,7.67767708 C14.2267284,7.23113986 13.5141532,7.23306459 13.0753543,7.68152653 C12.6370283,8.12998848 12.6384469,8.85513028 13.0791371,9.30166749 C13.5198273,9.74772353 14.2328754,9.74627998 14.6712014,9.29781804 C14.6712014,9.29781804 14.6716742,9.29781804 14.6716742,9.29733685 C15.1095274,8.84887491 15.1081089,8.12421429 14.6674186,7.67767708 L14.6674186,7.67767708 Z" id="Fill-17" fill="#00A29A"></path>
                    </g>
                </g>
                <g id="INNOVATIVE-TECHNOLOG" transform="translate(45.048387, 31.384615)" fill="#fff" fill-rule="nonzero">
                    <polygon id="路径" points="0.665705611 5.45776872 7.10542736e-15 5.45776872 7.10542736e-15 0.0880285278 0.665705611 0.0880285278"></polygon>
                    <polygon id="路径" points="2.76236721 0.0880285278 5.18877084 4.07865512 5.18877084 0.0880285278 5.81092561 0.0880285278 5.81092561 5.45776872 5.25720786 5.45776872 2.83080423 1.45980642 2.83080423 5.45776872 2.20864946 5.45776872 2.20864946 0.0880285278"></polygon>
                    <polygon id="路径" points="7.90758721 0.0880285278 10.3339908 4.07865512 10.3339908 0.0880285278 10.9561456 0.0880285278 10.9561456 5.45776872 10.4024279 5.45776872 7.97602423 1.45980642 7.97602423 5.45776872 7.35386946 5.45776872 7.35386946 0.0880285278"></polygon>
                    <path d="M12.2688922,2.76556291 C12.2688922,2.2080489 12.3601416,1.72022415 12.5426403,1.30208864 C12.725139,0.883953133 12.9760748,0.562404483 13.2954476,0.33744269 C13.6148204,0.112480897 13.9715224,0 14.3655538,0 C14.7595851,0 15.1162872,0.112480897 15.43566,0.33744269 C15.7550328,0.562404483 16.0059685,0.883953133 16.1884673,1.30208864 C16.370966,1.72022415 16.4622154,2.2080489 16.4622154,2.76556291 C16.4622154,3.3279674 16.3699291,3.81823739 16.1853565,4.2363729 C16.0007839,4.65450841 15.7498482,4.97605706 15.4325492,5.20101885 C15.1152503,5.42598064 14.7595851,5.53846154 14.3655538,5.53846154 C13.9715224,5.53846154 13.6148204,5.42720326 13.2954476,5.2046867 C12.9760748,4.98217015 12.725139,4.6606215 12.5426403,4.24004075 C12.3601416,3.81946001 12.2688922,3.3279674 12.2688922,2.76556291 Z M12.9781486,2.76556291 C12.9781486,3.17147224 13.0351795,3.52969944 13.1492412,3.84024452 C13.2633029,4.15078961 13.4240262,4.39164544 13.6314112,4.56281202 C13.8387961,4.7339786 14.0835103,4.8195619 14.3655538,4.8195619 C14.6475973,4.8195619 14.8933484,4.7339786 15.1028072,4.56281202 C15.312266,4.39164544 15.4740262,4.15078961 15.5880879,3.84024452 C15.7021496,3.52969944 15.7591805,3.17147224 15.7591805,2.76556291 C15.7591805,2.35965359 15.7021496,2.00264901 15.5880879,1.69454916 C15.4740262,1.38644931 15.311229,1.1468161 15.0996964,0.975649516 C14.8881638,0.804482934 14.6434496,0.718899643 14.3655538,0.718899643 C14.087658,0.718899643 13.8439807,0.804482934 13.6345219,0.975649516 C13.4250632,1.1468161 13.2633029,1.38644931 13.1492412,1.69454916 C13.0351795,2.00264901 12.9781486,2.35965359 12.9781486,2.76556291 Z" id="形状"></path>
                    <polygon id="路径" points="17.5945371 0.0880285278 18.9694991 4.37941926 20.2822457 0.0880285278 20.9728375 0.0880285278 19.2308041 5.45776872 18.6646433 5.45776872 16.8479513 0.0880285278"></polygon>
                    <path d="M22.7459786,0.0880285278 L24.5751137,5.45776872 L23.8471926,5.45776872 L23.3805765,4.01996943 L21.5327768,4.01996943 L21.0848254,5.45776872 L20.4128982,5.45776872 L22.1735962,0.0880285278 L22.7459786,0.0880285278 Z M23.1566008,3.33041263 L22.4349012,1.11502802 L21.750531,3.33041263 L23.1566008,3.33041263 Z" id="形状"></path>
                    <polygon id="路径" points="24.1396053 0.0880285278 27.6174505 0.0880285278 27.6174505 0.784921039 26.2113807 0.784921039 26.2113807 5.45776872 25.5394536 5.45776872 25.5394536 0.784921039 24.1396053 0.784921039"></polygon>
                    <polygon id="路径" points="29.371927 5.45776872 28.7062214 5.45776872 28.7062214 0.0880285278 29.371927 0.0880285278"></polygon>
                    <polygon id="路径" points="31.1823974 0.0880285278 32.5573595 4.37941926 33.870106 0.0880285278 34.5606978 0.0880285278 32.8186645 5.45776872 32.2525036 5.45776872 30.4358117 0.0880285278"></polygon>
                    <polygon id="路径" points="38.2438541 3.04431992 36.2902881 3.04431992 36.2902881 4.76087621 38.5424884 4.76087621 38.5424884 5.45776872 35.6245825 5.45776872 35.6245825 0.0806928171 38.4740514 0.0806928171 38.4740514 0.777585329 36.2902881 0.777585329 36.2902881 2.35476312 38.2438541 2.35476312"></polygon>
                    <polygon id="路径" points="41.3919573 0.0880285278 44.8698025 0.0880285278 44.8698025 0.784921039 43.4637327 0.784921039 43.4637327 5.45776872 42.7918055 5.45776872 42.7918055 0.784921039 41.3919573 0.784921039"></polygon>
                    <polygon id="路径" points="48.5778449 3.04431992 46.6242789 3.04431992 46.6242789 4.76087621 48.8764792 4.76087621 48.8764792 5.45776872 45.9585733 5.45776872 45.9585733 0.0806928171 48.8080422 0.0806928171 48.8080422 0.777585329 46.6242789 0.777585329 46.6242789 2.35476312 48.5778449 2.35476312"></polygon>
                    <path d="M51.9318813,4.8195619 C52.1765956,4.8195619 52.3860543,4.74865003 52.5602577,4.60682629 C52.734461,4.46500255 52.8734089,4.26693836 52.9771014,4.01263372 L53.5245976,4.39409068 C53.4043143,4.74131431 53.2031509,5.0188487 52.9211074,5.22669384 C52.6390639,5.43453897 52.3134696,5.53846154 51.9443244,5.53846154 C51.5544408,5.53846154 51.1987756,5.42231279 50.877329,5.19001528 C50.5558824,4.95771778 50.3018358,4.63127866 50.1151894,4.21069791 C49.928543,3.79011717 49.8352198,3.3084055 49.8352198,2.76556291 C49.8352198,2.22272033 49.928543,1.74100866 50.1151894,1.32042792 C50.3018358,0.899847173 50.5558824,0.574630667 50.877329,0.3447784 C51.1987756,0.114926133 51.5544408,0 51.9443244,0 C52.3134696,0 52.6390639,0.103922567 52.9211074,0.311767702 C53.2031509,0.519612837 53.4043143,0.797147224 53.5245976,1.14437086 L52.9771014,1.52582781 C52.8734089,1.27152318 52.734461,1.07345899 52.5602577,0.931635252 C52.3860543,0.789811513 52.1765956,0.718899643 51.9318813,0.718899643 C51.6622809,0.718899643 51.4217144,0.803260316 51.2101818,0.971981661 C50.9986492,1.14070301 50.8348151,1.38033622 50.7186795,1.6908813 C50.602544,2.00142639 50.5444762,2.35965359 50.5444762,2.76556291 C50.5444762,3.17147224 50.602544,3.52969944 50.7186795,3.84024452 C50.8348151,4.15078961 50.9986492,4.39164544 51.2101818,4.56281202 C51.4217144,4.7339786 51.6622809,4.8195619 51.9318813,4.8195619 Z" id="路径"></path>
                    <polygon id="路径" points="55.3412895 2.31808456 57.6619268 2.31808456 57.6619268 0.0880285278 58.3276325 0.0880285278 58.3276325 5.45776872 57.6619268 5.45776872 57.6619268 3.02231279 55.3412895 3.02231279 55.3412895 5.45776872 54.6755839 5.45776872 54.6755839 0.0880285278 55.3412895 0.0880285278"></polygon>
                    <polygon id="路径" points="60.424294 0.0880285278 62.8506977 4.07865512 62.8506977 0.0880285278 63.4728525 0.0880285278 63.4728525 5.45776872 62.9191347 5.45776872 60.4927311 1.45980642 60.4927311 5.45776872 59.8705763 5.45776872 59.8705763 0.0880285278"></polygon>
                    <path d="M64.785599,2.76556291 C64.785599,2.2080489 64.8768484,1.72022415 65.0593471,1.30208864 C65.2418459,0.883953133 65.4927816,0.562404483 65.8121544,0.33744269 C66.1315272,0.112480897 66.4882293,0 66.8822606,0 C67.276292,0 67.6329941,0.112480897 67.9523668,0.33744269 C68.2717396,0.562404483 68.5226754,0.883953133 68.7051741,1.30208864 C68.8876729,1.72022415 68.9789222,2.2080489 68.9789222,2.76556291 C68.9789222,3.3279674 68.8866359,3.81823739 68.7020633,4.2363729 C68.5174908,4.65450841 68.266555,4.97605706 67.9492561,5.20101885 C67.6319571,5.42598064 67.276292,5.53846154 66.8822606,5.53846154 C66.4882293,5.53846154 66.1315272,5.42720326 65.8121544,5.2046867 C65.4927816,4.98217015 65.2418459,4.6606215 65.0593471,4.24004075 C64.8768484,3.81946001 64.785599,3.3279674 64.785599,2.76556291 Z M65.4948555,2.76556291 C65.4948555,3.17147224 65.5518863,3.52969944 65.665948,3.84024452 C65.7800097,4.15078961 65.9407331,4.39164544 66.148118,4.56281202 C66.3555029,4.7339786 66.6002171,4.8195619 66.8822606,4.8195619 C67.1643041,4.8195619 67.4100553,4.7339786 67.619514,4.56281202 C67.8289728,4.39164544 67.9907331,4.15078961 68.1047948,3.84024452 C68.2188565,3.52969944 68.2758873,3.17147224 68.2758873,2.76556291 C68.2758873,2.35965359 68.2188565,2.00264901 68.1047948,1.69454916 C67.9907331,1.38644931 67.8279359,1.1468161 67.6164033,0.975649516 C67.4048706,0.804482934 67.1601564,0.718899643 66.8822606,0.718899643 C66.6043648,0.718899643 66.3606875,0.804482934 66.1512288,0.975649516 C65.94177,1.1468161 65.7800097,1.38644931 65.665948,1.69454916 C65.5518863,2.00264901 65.4948555,2.35965359 65.4948555,2.76556291 Z" id="形状"></path>
                    <polygon id="路径" points="70.3041119 0.0880285278 70.9698175 0.0880285278 70.9698175 4.7535405 73.1598023 4.7535405 73.1598023 5.45776872 70.3041119 5.45776872"></polygon>
                    <path d="M73.5268736,2.76556291 C73.5268736,2.2080489 73.618123,1.72022415 73.8006217,1.30208864 C73.9831205,0.883953133 74.2340562,0.562404483 74.553429,0.33744269 C74.8728018,0.112480897 75.2295039,0 75.6235352,0 C76.0175666,0 76.3742687,0.112480897 76.6936415,0.33744269 C77.0130142,0.562404483 77.26395,0.883953133 77.4464487,1.30208864 C77.6289475,1.72022415 77.7201968,2.2080489 77.7201968,2.76556291 C77.7201968,3.3279674 77.6279105,3.81823739 77.443338,4.2363729 C77.2587654,4.65450841 77.0078296,4.97605706 76.6905307,5.20101885 C76.3732317,5.42598064 76.0175666,5.53846154 75.6235352,5.53846154 C75.2295039,5.53846154 74.8728018,5.42720326 74.553429,5.2046867 C74.2340562,4.98217015 73.9831205,4.6606215 73.8006217,4.24004075 C73.618123,3.81946001 73.5268736,3.3279674 73.5268736,2.76556291 Z M74.2361301,2.76556291 C74.2361301,3.17147224 74.2931609,3.52969944 74.4072226,3.84024452 C74.5212844,4.15078961 74.6820077,4.39164544 74.8893926,4.56281202 C75.0967775,4.7339786 75.3414917,4.8195619 75.6235352,4.8195619 C75.9055787,4.8195619 76.1513299,4.7339786 76.3607886,4.56281202 C76.5702474,4.39164544 76.7320077,4.15078961 76.8460694,3.84024452 C76.9601311,3.52969944 77.0171619,3.17147224 77.0171619,2.76556291 C77.0171619,2.35965359 76.9601311,2.00264901 76.8460694,1.69454916 C76.7320077,1.38644931 76.5692105,1.1468161 76.3576779,0.975649516 C76.1461452,0.804482934 75.901431,0.718899643 75.6235352,0.718899643 C75.3456394,0.718899643 75.1019621,0.804482934 74.8925034,0.975649516 C74.6830446,1.1468161 74.5212844,1.38644931 74.4072226,1.69454916 C74.2931609,2.00264901 74.2361301,2.35965359 74.2361301,2.76556291 Z" id="形状"></path>
                    <path d="M81.0487249,3.28639837 L81.0487249,2.58950586 L82.6414411,2.58950586 L82.6414411,4.71686195 C82.5045671,4.95649516 82.2919975,5.15333673 82.0037325,5.30738665 C81.7154674,5.46143658 81.3929839,5.53846154 81.0362818,5.53846154 C80.6090688,5.53846154 80.2274806,5.42231279 79.891517,5.19001528 C79.5555534,4.95771778 79.2921746,4.63005604 79.1013804,4.20703006 C78.9105863,3.78400408 78.8151892,3.30106979 78.8151892,2.7582272 C78.8151892,2.21538462 78.9116232,1.73489557 79.1044912,1.31676006 C79.2973592,0.898624554 79.560738,0.574630667 79.8946278,0.3447784 C80.2285175,0.114926133 80.5986996,0 81.0051741,0 C81.3867623,0 81.721689,0.0965868569 82.009954,0.289760571 C82.2982191,0.482934284 82.5024932,0.745797249 82.6227765,1.07834947 L82.0752803,1.45247071 C81.9798832,1.23239939 81.8367876,1.05511971 81.6459935,0.920631686 C81.4551993,0.786143658 81.2332975,0.718899643 80.9802879,0.718899643 C80.6982444,0.718899643 80.4462717,0.803260316 80.2243698,0.971981661 C80.0024679,1.14070301 79.8293015,1.38033622 79.7048706,1.6908813 C79.5804396,2.00142639 79.5182241,2.35720835 79.5182241,2.7582272 C79.5182241,3.169027 79.5825135,3.52969944 79.7110921,3.84024452 C79.8396708,4.15078961 80.0221695,4.39164544 80.2585883,4.56281202 C80.4950071,4.7339786 80.7687552,4.8195619 81.0798326,4.8195619 C81.4780117,4.8195619 81.776646,4.69485481 81.9757355,4.44544065 L81.9757355,3.28639837 L81.0487249,3.28639837 Z" id="路径"></path>
                    <polygon id="路径" points="85.4660238 2.45012736 86.6107886 0.0806928171 87.3387097 0.0806928171 85.7646581 3.2350484 85.7646581 5.45776872 85.0989525 5.45776872 85.0989525 3.22037697 83.4626854 0.0806928171 84.252822 0.0806928171"></polygon>
                </g>
            </g>
        </g>
    </g>
</svg>
